<svg width="150" height="151" viewBox="0 0 150 151" fill="none" xmlns="http://www.w3.org/2000/svg">
<circle opacity="0.1" cx="75" cy="75.25" r="75" fill="#1958F7"/>
<circle opacity="0.36" cx="75" cy="75.25" r="66" fill="#1958F7"/>
<g filter="url(#filter0_ddddf_231_9536)">
<circle cx="75" cy="75.25" r="55" fill="#EFEFFD"/>
</g>
<g clip-path="url(#clip0_231_9536)">
<path d="M75.0957 82.8748C79.3467 82.8748 82.7928 79.4287 82.7928 75.1778V57.9471C82.7928 53.6961 79.3467 50.25 75.0957 50.25C70.8448 50.25 67.3987 53.6961 67.3987 57.9471V75.1984C67.3987 79.4287 70.8448 82.8748 75.0957 82.8748ZM69.4622 57.9471C69.4622 54.8311 72.0004 52.3136 75.0957 52.3136C78.1911 52.3136 80.7293 54.8311 80.7293 57.9471V75.1984C80.7293 78.2937 78.2117 80.8319 75.0957 80.8319C72.0004 80.8319 69.4622 78.3144 69.4622 75.1984V57.9471Z" fill="url(#paint0_linear_231_9536)"/>
<path d="M90.428 69.709C89.8502 69.709 89.3962 70.163 89.3962 70.7408V74.9917C89.3962 82.7713 83.2262 89.2509 75.4466 89.3747C67.5431 89.4779 61.0636 83.0808 61.0636 75.198V70.7408C61.0636 70.163 60.6096 69.709 60.0318 69.709C59.454 69.709 59 70.163 59 70.7408V74.9917C59 83.9269 66.1193 91.3351 75.0545 91.4176C79.6149 91.4589 83.7421 89.643 86.7136 86.6714C89.6438 83.7412 91.4598 79.676 91.4598 75.198V70.7408C91.4598 70.163 90.9851 69.709 90.428 69.709Z" fill="url(#paint1_linear_231_9536)"/>
<path d="M83.7834 98.1863H76.2514V91.4385H74.1878V98.1863H66.4495C65.8717 98.1863 65.4177 98.6403 65.4177 99.2181C65.4177 99.7959 65.8717 100.25 66.4495 100.25H83.7834C84.3612 100.25 84.8152 99.7959 84.8152 99.2181C84.8152 98.6403 84.3612 98.1863 83.7834 98.1863Z" fill="url(#paint2_linear_231_9536)"/>
</g>
<defs>
<filter id="filter0_ddddf_231_9536" x="12" y="13.25" width="126" height="124" filterUnits="userSpaceOnUse" color-interpolation-filters="sRGB">
<feFlood flood-opacity="0" result="BackgroundImageFix"/>
<feColorMatrix in="SourceAlpha" type="matrix" values="0 0 0 0 0 0 0 0 0 0 0 0 0 0 0 0 0 0 127 0" result="hardAlpha"/>
<feOffset dy="4"/>
<feGaussianBlur stdDeviation="1.5"/>
<feComposite in2="hardAlpha" operator="out"/>
<feColorMatrix type="matrix" values="0 0 0 0 0 0 0 0 0 0 0 0 0 0 0 0 0 0 0.25 0"/>
<feBlend mode="normal" in2="BackgroundImageFix" result="effect1_dropShadow_231_9536"/>
<feColorMatrix in="SourceAlpha" type="matrix" values="0 0 0 0 0 0 0 0 0 0 0 0 0 0 0 0 0 0 127 0" result="hardAlpha"/>
<feOffset dy="-4"/>
<feGaussianBlur stdDeviation="1.5"/>
<feComposite in2="hardAlpha" operator="out"/>
<feColorMatrix type="matrix" values="0 0 0 0 1 0 0 0 0 1 0 0 0 0 1 0 0 0 0.25 0"/>
<feBlend mode="normal" in2="effect1_dropShadow_231_9536" result="effect2_dropShadow_231_9536"/>
<feColorMatrix in="SourceAlpha" type="matrix" values="0 0 0 0 0 0 0 0 0 0 0 0 0 0 0 0 0 0 127 0" result="hardAlpha"/>
<feOffset dx="4"/>
<feGaussianBlur stdDeviation="2"/>
<feComposite in2="hardAlpha" operator="out"/>
<feColorMatrix type="matrix" values="0 0 0 0 1 0 0 0 0 1 0 0 0 0 1 0 0 0 0.5 0"/>
<feBlend mode="normal" in2="effect2_dropShadow_231_9536" result="effect3_dropShadow_231_9536"/>
<feColorMatrix in="SourceAlpha" type="matrix" values="0 0 0 0 0 0 0 0 0 0 0 0 0 0 0 0 0 0 127 0" result="hardAlpha"/>
<feOffset dx="-4"/>
<feGaussianBlur stdDeviation="2"/>
<feComposite in2="hardAlpha" operator="out"/>
<feColorMatrix type="matrix" values="0 0 0 0 1 0 0 0 0 1 0 0 0 0 1 0 0 0 0.5 0"/>
<feBlend mode="normal" in2="effect3_dropShadow_231_9536" result="effect4_dropShadow_231_9536"/>
<feBlend mode="normal" in="SourceGraphic" in2="effect4_dropShadow_231_9536" result="shape"/>
<feGaussianBlur stdDeviation="0.5" result="effect5_foregroundBlur_231_9536"/>
</filter>
<linearGradient id="paint0_linear_231_9536" x1="75.0958" y1="50.25" x2="75.0958" y2="82.8748" gradientUnits="userSpaceOnUse">
<stop stop-color="#18009D"/>
<stop offset="1" stop-color="#A79ABF"/>
</linearGradient>
<linearGradient id="paint1_linear_231_9536" x1="75.2299" y1="69.709" x2="75.2299" y2="91.4183" gradientUnits="userSpaceOnUse">
<stop stop-color="#18009D"/>
<stop offset="1" stop-color="#A79ABF"/>
</linearGradient>
<linearGradient id="paint2_linear_231_9536" x1="75.1164" y1="91.4385" x2="75.1164" y2="100.25" gradientUnits="userSpaceOnUse">
<stop stop-color="#18009D"/>
<stop offset="1" stop-color="#A79ABF"/>
</linearGradient>
<clipPath id="clip0_231_9536">
<rect width="32.4598" height="50" fill="white" transform="translate(59 50.25)"/>
</clipPath>
</defs>
</svg>
