<svg width="17" height="18" viewBox="0 0 17 18" fill="none" xmlns="http://www.w3.org/2000/svg">
<path d="M15.4898 7.9061L2.36484 0.414695C2.1436 0.29059 1.88983 0.236734 1.63726 0.260281C1.38468 0.283828 1.14525 0.383664 0.950762 0.546528C0.756276 0.709391 0.615943 0.927571 0.548407 1.17209C0.48087 1.4166 0.489325 1.67588 0.57265 1.91548L2.99452 8.98345C2.99421 8.98604 2.99421 8.98866 2.99452 8.99126C2.99409 8.99384 2.99409 8.99648 2.99452 8.99907L0.57265 16.0827C0.50592 16.2711 0.485375 16.4729 0.512739 16.6709C0.540103 16.869 0.614578 17.0576 0.729913 17.2209C0.845248 17.3842 0.998077 17.5175 1.17557 17.6095C1.35307 17.7016 1.55005 17.7497 1.74999 17.7499C1.96692 17.7493 2.18004 17.6928 2.36874 17.5858L15.4867 10.0819C15.6802 9.97349 15.8414 9.81556 15.9537 9.62431C16.066 9.43306 16.1254 9.21536 16.1258 8.99357C16.1262 8.77178 16.0676 8.55388 15.956 8.36222C15.8443 8.17057 15.6837 8.01206 15.4906 7.90298L15.4898 7.9061ZM1.74999 16.4999V16.4928L4.10468 9.62485H8.62499C8.79075 9.62485 8.94973 9.559 9.06694 9.44179C9.18415 9.32458 9.24999 9.16561 9.24999 8.99985C9.24999 8.83409 9.18415 8.67512 9.06694 8.55791C8.94973 8.4407 8.79075 8.37485 8.62499 8.37485H4.11093L1.75468 1.50923L1.74999 1.49985L14.875 8.98657L1.74999 16.4999Z" fill="#1C1C1C" fill-opacity="0.4"/>
</svg>
