<svg width="12" height="12" viewBox="0 0 12 12" fill="none" xmlns="http://www.w3.org/2000/svg">
<path d="M6 12C5.52661 12 5.14286 11.6162 5.14286 11.1429V7.85714C5.14286 7.30486 4.69514 6.85714 4.14286 6.85714H0.857144C0.383757 6.85714 0 6.47339 0 6C0 5.52661 0.383756 5.14286 0.857143 5.14286H4.14286C4.69514 5.14286 5.14286 4.69514 5.14286 4.14286V0.857144C5.14286 0.383757 5.52661 0 6 0C6.47339 0 6.85714 0.383756 6.85714 0.857143V4.14286C6.85714 4.69514 7.30486 5.14286 7.85714 5.14286H11.1429C11.6162 5.14286 12 5.52661 12 6C12 6.47339 11.6162 6.85714 11.1429 6.85714H7.85714C7.30486 6.85714 6.85714 7.30486 6.85714 7.85714V11.1429C6.85714 11.6162 6.47339 12 6 12Z" fill="#1E1E1E"/>
</svg>
