<svg width="12" height="12" viewBox="0 0 12 12" fill="none" xmlns="http://www.w3.org/2000/svg">
<path d="M11.3887 5.27165H9.23242C9.09648 5.27165 8.98633 5.38181 8.98633 5.51774V6.68774H7.32227V4.77759C7.32227 4.64165 7.21211 4.53149 7.07617 4.53149H4.91992C4.78398 4.53149 4.67383 4.64165 4.67383 4.77759V7.94282H3.00977V6.93384C3.00977 6.7979 2.89961 6.68774 2.76367 6.68774H0.607422C0.471484 6.68774 0.361328 6.7979 0.361328 6.93384V10.6993C0.361328 10.8352 0.471484 10.9454 0.607422 10.9454H11.3887C11.5246 10.9454 11.6348 10.8352 11.6348 10.6993V5.51798C11.6348 5.38204 11.5246 5.27188 11.3887 5.27188V5.27165ZM0.853516 7.17993H2.51758V10.4532H0.853516V7.17993ZM3.00977 8.43501H4.67383V10.453H3.00977V8.43501ZM5.16602 8.18892V5.02368H6.83008V10.4532H5.16602V8.18915V8.18892ZM7.32227 7.17993H8.98633V10.4532H7.32227V7.17993ZM11.1426 10.4532H9.47852V5.76407H11.1426V10.4532Z" fill="black"/>
<path d="M1.62117 2.48059C1.72453 2.48059 1.82273 2.45785 1.91133 2.41754L3.16711 3.67332C3.13242 3.75395 3.11297 3.84254 3.11297 3.93559C3.11297 4.30191 3.41109 4.60004 3.77742 4.60004C4.14375 4.60004 4.44187 4.30191 4.44187 3.93559C4.44187 3.85121 4.42594 3.77059 4.39711 3.69605L5.68617 2.40699C5.78016 2.45387 5.88609 2.48035 5.99813 2.48035C6.10148 2.48035 6.19969 2.45762 6.28828 2.4173L7.54406 3.67309C7.50937 3.75371 7.48992 3.8423 7.48992 3.93535C7.48992 4.30168 7.78805 4.5998 8.15437 4.5998C8.5207 4.5998 8.81883 4.30168 8.81883 3.93535C8.81883 3.85098 8.80289 3.77035 8.77406 3.69582L10.0631 2.40676C10.1571 2.45363 10.263 2.48012 10.3751 2.48012C10.7618 2.48012 11.0763 2.16559 11.0763 1.77887C11.0763 1.39215 10.7618 1.07762 10.3751 1.07762C9.98836 1.07762 9.67383 1.39215 9.67383 1.77887C9.67383 1.87355 9.69281 1.96402 9.72703 2.04652L8.43891 3.33465C8.35266 3.29363 8.25609 3.27043 8.15437 3.27043C8.06133 3.27043 7.9725 3.28988 7.89211 3.32457L6.63633 2.06879C6.67664 1.9802 6.69938 1.88223 6.69938 1.77863C6.69938 1.39191 6.38484 1.07738 5.99813 1.07738C5.61141 1.07738 5.29688 1.39191 5.29688 1.77863C5.29688 1.87332 5.31586 1.96379 5.35008 2.04629L4.06195 3.33441C3.9757 3.2934 3.87914 3.2702 3.77742 3.2702C3.68438 3.2702 3.59555 3.28965 3.51516 3.32434L2.25937 2.06855C2.29969 1.97996 2.32242 1.88199 2.32242 1.7784C2.32242 1.39168 2.00789 1.07715 1.62117 1.07715C1.23445 1.07715 0.919922 1.39168 0.919922 1.7784C0.919922 2.16512 1.23445 2.47965 1.62117 2.47965V2.48059ZM10.3751 1.57027C10.4904 1.57027 10.5841 1.66402 10.5841 1.77934C10.5841 1.89465 10.4904 1.9884 10.3751 1.9884C10.2598 1.9884 10.166 1.89465 10.166 1.77934C10.166 1.66402 10.2598 1.57027 10.3751 1.57027ZM8.32664 3.93559C8.32664 4.03051 8.2493 4.10785 8.15437 4.10785C8.05945 4.10785 7.98211 4.03051 7.98211 3.93559C7.98211 3.84066 8.05945 3.76332 8.15437 3.76332C8.2493 3.76332 8.32664 3.84066 8.32664 3.93559ZM5.99813 1.57027C6.11344 1.57027 6.20719 1.66402 6.20719 1.77934C6.20719 1.89465 6.11344 1.9884 5.99813 1.9884C5.88281 1.9884 5.78906 1.89465 5.78906 1.77934C5.78906 1.66402 5.88281 1.57027 5.99813 1.57027ZM3.94969 3.93559C3.94969 4.03051 3.87234 4.10785 3.77742 4.10785C3.6825 4.10785 3.60516 4.03051 3.60516 3.93559C3.60516 3.84066 3.6825 3.76332 3.77742 3.76332C3.87234 3.76332 3.94969 3.84066 3.94969 3.93559ZM1.62117 1.57027C1.73648 1.57027 1.83023 1.66402 1.83023 1.77934C1.83023 1.89465 1.73648 1.9884 1.62117 1.9884C1.50586 1.9884 1.41211 1.89465 1.41211 1.77934C1.41211 1.66402 1.50586 1.57027 1.62117 1.57027Z" fill="black"/>
</svg>
