<svg width="12" height="12" viewBox="0 0 12 12" fill="none" xmlns="http://www.w3.org/2000/svg">
<g clip-path="url(#clip0_618_5719)">
<path d="M4.10521 11.9144H1.2067C0.913189 11.914 0.631808 11.7973 0.424268 11.5897C0.216728 11.3822 0.0999723 11.1008 0.0996094 10.8073V7.94512C0.0999725 7.65165 0.216739 7.3703 0.424289 7.16282C0.631839 6.95533 0.913221 6.83865 1.2067 6.83838H4.10521C4.39851 6.83892 4.67962 6.95572 4.88695 7.16318C5.09428 7.37064 5.2109 7.65183 5.21127 7.94512V10.8073C5.21099 11.1006 5.09441 11.3819 4.88707 11.5895C4.67973 11.797 4.39856 11.9138 4.10521 11.9144ZM1.2067 7.69552C1.14049 7.69561 1.07702 7.72193 1.03018 7.76871C0.983336 7.81549 0.956933 7.87892 0.956752 7.94512V10.8073C0.956843 10.8736 0.983205 10.9371 1.03006 10.9839C1.07691 11.0308 1.14043 11.0571 1.2067 11.0572H4.10521C4.17141 11.0571 4.23484 11.0307 4.28162 10.9838C4.3284 10.937 4.35472 10.8735 4.35481 10.8073V7.94512C4.35472 7.87895 4.32839 7.81552 4.2816 7.76873C4.23481 7.72194 4.17138 7.69561 4.10521 7.69552H1.2067Z" fill="black"/>
<path d="M10.8074 11.9144H7.90884C7.61534 11.914 7.33396 11.7973 7.12642 11.5897C6.91888 11.3822 6.80212 11.1008 6.80176 10.8073V7.94512C6.80212 7.65165 6.91889 7.3703 7.12644 7.16282C7.33399 6.95533 7.61537 6.83865 7.90884 6.83838H10.8074C11.1008 6.83874 11.3821 6.95546 11.5895 7.16294C11.797 7.37041 11.9137 7.65171 11.9141 7.94512V10.8073C11.9138 11.1008 11.7971 11.3821 11.5897 11.5897C11.3822 11.7972 11.1008 11.914 10.8074 11.9144ZM7.90884 7.69724C7.84264 7.69733 7.77917 7.72364 7.73233 7.77042C7.68548 7.8172 7.65908 7.88063 7.6589 7.94684V10.809C7.65899 10.8753 7.68535 10.9388 7.73221 10.9856C7.77906 11.0325 7.84258 11.0589 7.90884 11.059H10.8074C10.8736 11.0588 10.937 11.0324 10.9838 10.9855C11.0306 10.9387 11.0569 10.8752 11.057 10.809V7.94512C11.0569 7.87895 11.0305 7.81552 10.9838 7.76873C10.937 7.72194 10.8735 7.69561 10.8074 7.69552L7.90884 7.69724Z" fill="black"/>
<path d="M9.36008 5.16162C8.8591 5.1579 8.37044 5.00594 7.9557 4.7249C7.54095 4.44386 7.2187 4.04632 7.02956 3.5824C6.84042 3.11849 6.79285 2.60895 6.89287 2.11805C6.99288 1.62714 7.236 1.17683 7.59156 0.823885C7.94713 0.470944 8.39923 0.23117 8.89086 0.134793C9.3825 0.038415 9.89166 0.0897479 10.3542 0.28232C10.8167 0.474892 11.2118 0.800082 11.4898 1.21689C11.7677 1.63371 11.9161 2.12348 11.9161 2.62448C11.9127 3.2996 11.6418 3.94584 11.1626 4.42146C10.6834 4.89708 10.0352 5.16326 9.36008 5.16162ZM9.36008 0.944476C9.02864 0.948197 8.7057 1.04988 8.43192 1.23673C8.15814 1.42358 7.94574 1.68724 7.82148 1.99453C7.69721 2.30182 7.66662 2.639 7.73355 2.96363C7.80049 3.28827 7.96196 3.58585 8.19765 3.81892C8.43333 4.05199 8.7327 4.21013 9.05806 4.27344C9.38343 4.33675 9.72025 4.3024 10.0261 4.17471C10.332 4.04702 10.5933 3.8317 10.7771 3.55584C10.9608 3.27999 11.0589 2.95594 11.0589 2.62448C11.0562 2.17632 10.8758 1.74756 10.5573 1.43227C10.2388 1.11699 9.80824 0.940937 9.36008 0.942762V0.944476Z" fill="black"/>
</g>
<defs>
<clipPath id="clip0_618_5719">
<rect width="12" height="12" fill="white"/>
</clipPath>
</defs>
</svg>
