<svg width="97" height="40" viewBox="0 0 97 40" fill="none" xmlns="http://www.w3.org/2000/svg">
<rect x="0.5" y="0.5" width="96" height="39" rx="14.5" stroke="#F0F0F0"/>
<path fill-rule="evenodd" clip-rule="evenodd" d="M22 14.625C22.0541 14.625 22.1077 14.6367 22.1569 14.6593C22.2061 14.6819 22.2498 14.7149 22.285 14.756L23.785 16.506C23.8497 16.5816 23.8817 16.6798 23.8741 16.779C23.8664 16.8782 23.8196 16.9703 23.744 17.035C23.6684 17.0997 23.5702 17.1317 23.471 17.1241C23.3718 17.1164 23.2797 17.0696 23.215 16.994L22.375 16.014V21.5C22.375 21.5995 22.3355 21.6948 22.2652 21.7652C22.1948 21.8355 22.0995 21.875 22 21.875C21.9005 21.875 21.8052 21.8355 21.7348 21.7652C21.6645 21.6948 21.625 21.5995 21.625 21.5V16.0135L20.785 16.994C20.753 17.0314 20.7139 17.0622 20.6699 17.0845C20.626 17.1068 20.5781 17.1203 20.529 17.1241C20.4799 17.1279 20.4305 17.122 20.3836 17.1067C20.3368 17.0914 20.2934 17.067 20.256 17.035C20.2186 17.003 20.1878 16.9639 20.1655 16.9199C20.1432 16.876 20.1297 16.8281 20.1259 16.779C20.1221 16.7299 20.128 16.6805 20.1433 16.6336C20.1586 16.5868 20.183 16.5434 20.215 16.506L21.715 14.756C21.7502 14.7149 21.7939 14.6819 21.8431 14.6593C21.8923 14.6367 21.9459 14.625 22 14.625ZM19.498 18.126C19.5975 18.1255 19.693 18.1645 19.7638 18.2344C19.8345 18.3044 19.8745 18.3995 19.875 18.499C19.8755 18.5985 19.8365 18.694 19.7666 18.7648C19.6966 18.8355 19.6015 18.8755 19.502 18.876C18.9555 18.879 18.568 18.893 18.2735 18.947C17.9905 18.9995 17.826 19.083 17.7045 19.2045C17.566 19.343 17.476 19.5375 17.4265 19.9045C17.376 20.282 17.375 20.7825 17.375 21.5V22C17.375 22.718 17.376 23.2185 17.4265 23.596C17.476 23.963 17.5665 24.157 17.7045 24.296C17.843 24.434 18.037 24.524 18.4045 24.5735C18.7815 24.6245 19.2825 24.625 20 24.625H24C24.7175 24.625 25.218 24.6245 25.596 24.5735C25.963 24.524 26.157 24.434 26.2955 24.2955C26.434 24.157 26.524 23.963 26.5735 23.596C26.624 23.2185 26.625 22.718 26.625 22V21.5C26.625 20.7825 26.624 20.282 26.5735 19.904C26.524 19.5375 26.4335 19.343 26.2955 19.2045C26.1735 19.083 26.0095 18.9995 25.7265 18.947C25.432 18.893 25.0445 18.879 24.498 18.876C24.4488 18.8757 24.4 18.8658 24.3546 18.8467C24.3092 18.8276 24.2681 18.7998 24.2334 18.7648C24.1988 18.7297 24.1714 18.6883 24.1528 18.6427C24.1342 18.5971 24.1247 18.5482 24.125 18.499C24.1253 18.4498 24.1352 18.401 24.1543 18.3556C24.1734 18.3102 24.2012 18.2691 24.2362 18.2344C24.2713 18.1998 24.3127 18.1724 24.3583 18.1538C24.4039 18.1352 24.4528 18.1257 24.502 18.126C25.043 18.129 25.4935 18.142 25.862 18.2095C26.241 18.2795 26.5635 18.412 26.826 18.6745C27.127 18.975 27.256 19.3545 27.317 19.8045C27.375 20.2375 27.375 20.789 27.375 21.4725V22.0275C27.375 22.7115 27.375 23.2625 27.317 23.696C27.256 24.146 27.127 24.525 26.826 24.826C26.525 25.127 26.146 25.256 25.696 25.317C25.2625 25.375 24.711 25.375 24.0275 25.375H19.9725C19.289 25.375 18.7375 25.375 18.304 25.317C17.854 25.2565 17.475 25.127 17.174 24.826C16.873 24.525 16.744 24.146 16.6835 23.696C16.625 23.2625 16.625 22.711 16.625 22.0275V21.4725C16.625 20.789 16.625 20.2375 16.6835 19.804C16.7435 19.354 16.8735 18.975 17.174 18.674C17.4365 18.412 17.759 18.279 18.138 18.2095C18.5065 18.142 18.957 18.129 19.498 18.126Z" fill="#1E1E1E"/>
<path d="M40.602 19.614C40.602 18.662 40.8167 17.808 41.246 17.052C41.6753 16.2867 42.2587 15.6893 42.996 15.26C43.7427 14.8307 44.5687 14.616 45.474 14.616C46.538 14.616 47.4667 14.8727 48.26 15.386C49.0533 15.8993 49.632 16.6273 49.996 17.57H48.47C48.1993 16.982 47.8073 16.5293 47.294 16.212C46.79 15.8947 46.1833 15.736 45.474 15.736C44.7927 15.736 44.1813 15.8947 43.64 16.212C43.0987 16.5293 42.674 16.982 42.366 17.57C42.058 18.1487 41.904 18.83 41.904 19.614C41.904 20.3887 42.058 21.07 42.366 21.658C42.674 22.2367 43.0987 22.6847 43.64 23.002C44.1813 23.3193 44.7927 23.478 45.474 23.478C46.1833 23.478 46.79 23.324 47.294 23.016C47.8073 22.6987 48.1993 22.246 48.47 21.658H49.996C49.632 22.5913 49.0533 23.3147 48.26 23.828C47.4667 24.332 46.538 24.584 45.474 24.584C44.5687 24.584 43.7427 24.374 42.996 23.954C42.2587 23.5247 41.6753 22.932 41.246 22.176C40.8167 21.42 40.602 20.566 40.602 19.614ZM53.1665 14.14V24.5H51.8925V14.14H53.1665ZM58.6838 24.626C57.9651 24.626 57.3118 24.4627 56.7238 24.136C56.1451 23.8093 55.6878 23.3473 55.3518 22.75C55.0251 22.1433 54.8618 21.4433 54.8618 20.65C54.8618 19.866 55.0298 19.1753 55.3658 18.578C55.7111 17.9713 56.1778 17.5093 56.7658 17.192C57.3538 16.8653 58.0118 16.702 58.7398 16.702C59.4678 16.702 60.1258 16.8653 60.7138 17.192C61.3018 17.5093 61.7638 17.9667 62.0998 18.564C62.4451 19.1613 62.6178 19.8567 62.6178 20.65C62.6178 21.4433 62.4404 22.1433 62.0858 22.75C61.7404 23.3473 61.2691 23.8093 60.6718 24.136C60.0744 24.4627 59.4118 24.626 58.6838 24.626ZM58.6838 23.506C59.1411 23.506 59.5704 23.3987 59.9718 23.184C60.3731 22.9693 60.6951 22.6473 60.9378 22.218C61.1898 21.7887 61.3158 21.266 61.3158 20.65C61.3158 20.034 61.1944 19.5113 60.9518 19.082C60.7091 18.6527 60.3918 18.3353 59.9998 18.13C59.6078 17.9153 59.1831 17.808 58.7258 17.808C58.2591 17.808 57.8298 17.9153 57.4378 18.13C57.0551 18.3353 56.7471 18.6527 56.5138 19.082C56.2804 19.5113 56.1638 20.034 56.1638 20.65C56.1638 21.2753 56.2758 21.8027 56.4998 22.232C56.7331 22.6613 57.0411 22.9833 57.4238 23.198C57.8064 23.4033 58.2264 23.506 58.6838 23.506ZM68.0308 16.688C68.9642 16.688 69.7202 16.9727 70.2988 17.542C70.8775 18.102 71.1668 18.914 71.1668 19.978V24.5H69.9068V20.16C69.9068 19.3947 69.7155 18.8113 69.3328 18.41C68.9502 17.9993 68.4275 17.794 67.7648 17.794C67.0928 17.794 66.5562 18.004 66.1548 18.424C65.7628 18.844 65.5668 19.4553 65.5668 20.258V24.5H64.2928V16.828H65.5668V17.92C65.8188 17.528 66.1595 17.2247 66.5888 17.01C67.0275 16.7953 67.5082 16.688 68.0308 16.688ZM80.2479 20.37C80.2479 20.6127 80.2339 20.8693 80.2059 21.14H74.0739C74.1206 21.896 74.3773 22.4887 74.8439 22.918C75.3199 23.338 75.8939 23.548 76.5659 23.548C77.1166 23.548 77.5739 23.422 77.9379 23.17C78.3113 22.9087 78.5726 22.5633 78.7219 22.134H80.0939C79.8886 22.8713 79.4779 23.4733 78.8619 23.94C78.2459 24.3973 77.4806 24.626 76.5659 24.626C75.8379 24.626 75.1846 24.4627 74.6059 24.136C74.0366 23.8093 73.5886 23.3473 73.2619 22.75C72.9353 22.1433 72.7719 21.4433 72.7719 20.65C72.7719 19.8567 72.9306 19.1613 73.2479 18.564C73.5653 17.9667 74.0086 17.5093 74.5779 17.192C75.1566 16.8653 75.8193 16.702 76.5659 16.702C77.2939 16.702 77.9379 16.8607 78.4979 17.178C79.0579 17.4953 79.4873 17.934 79.7859 18.494C80.0939 19.0447 80.2479 19.67 80.2479 20.37ZM78.9319 20.104C78.9319 19.6187 78.8246 19.2033 78.6099 18.858C78.3953 18.5033 78.1013 18.2373 77.7279 18.06C77.3639 17.8733 76.9579 17.78 76.5099 17.78C75.8659 17.78 75.3153 17.9853 74.8579 18.396C74.4099 18.8067 74.1533 19.376 74.0879 20.104H78.9319Z" fill="#1E1E1E"/>
</svg>
