<svg width="20" height="20" viewBox="0 0 20 20" fill="none" xmlns="http://www.w3.org/2000/svg">
<path d="M5.11087 17.5C4.12921 17.5 3.33337 16.6833 3.33337 15.675V8.33999C3.33337 7.78582 3.57921 7.26082 4.00004 6.91499L8.88921 2.89999C9.20159 2.6413 9.59446 2.49976 10 2.49976C10.4056 2.49976 10.7985 2.6413 11.1109 2.89999L15.9992 6.91499C16.4209 7.26082 16.6667 7.78582 16.6667 8.33999V15.675C16.6667 16.6833 15.8709 17.5 14.8892 17.5H5.11087Z" stroke="#7D7D7D" stroke-width="1.125" stroke-linecap="round" stroke-linejoin="round"/>
<path d="M7.91675 17.5V12.9167C7.91675 12.4746 8.09234 12.0507 8.4049 11.7382C8.71746 11.4256 9.14139 11.25 9.58341 11.25H10.4167C10.8588 11.25 11.2827 11.4256 11.5953 11.7382C11.9078 12.0507 12.0834 12.4746 12.0834 12.9167V17.5" stroke="#7D7D7D" stroke-width="1.125" stroke-linecap="round" stroke-linejoin="round"/>
</svg>
