<svg width="52" height="52" viewBox="0 0 52 52" fill="none" xmlns="http://www.w3.org/2000/svg">
<rect x="0.5" y="0.5" width="51" height="51" rx="14.5" fill="white"/>
<rect x="0.5" y="0.5" width="51" height="51" rx="14.5" stroke="#F0F0F0"/>
<path d="M23.5232 21.96H20.1377C19.7595 21.96 19.4541 22.1637 19.4541 22.52C19.4541 22.8764 19.7595 23.0691 20.1377 23.0691H20.9777V30.3091C20.9777 31.651 21.865 32.7491 23.0686 32.7491H29.1996C30.3996 32.7491 31.2868 31.6582 31.2868 30.3091V23.0764H32.0614C32.4396 23.0764 32.745 22.88 32.745 22.5273C32.745 22.1746 32.4396 21.9673 32.0614 21.9673H28.8795C28.8359 20.611 27.6541 19.4546 26.2032 19.4546C24.7523 19.4546 23.5705 20.611 23.5232 21.96ZM24.8032 21.96C24.8541 21.2691 25.4541 20.56 26.2032 20.56C26.9523 20.56 27.5559 21.2691 27.5996 21.96H24.8032ZM22.0832 30.3055V23.0728H30.1814V30.3128C30.1814 31.0437 29.625 31.6364 29.1996 31.6364H23.0686C22.6432 31.6291 22.0868 31.0364 22.0868 30.3055H22.0832ZM23.985 30.0146C24.2977 30.0146 24.5559 29.7237 24.5559 29.3564V25.6C24.5559 25.2328 24.3014 24.9419 23.985 24.9419C23.6686 24.9419 23.4141 25.2328 23.4141 25.6V29.3564C23.4141 29.7237 23.665 30.0146 23.985 30.0146ZM26.6177 29.3564V25.6C26.6177 25.2328 26.3632 24.9419 26.0468 24.9419C25.7305 24.9419 25.4759 25.2328 25.4759 25.6V29.3564C25.4759 29.7237 25.7341 30.0146 26.0468 30.0146C26.3595 30.0146 26.6177 29.7237 26.6177 29.3564ZM28.2177 30.0146C28.5305 30.0146 28.7886 29.7237 28.7886 29.3564V25.6C28.7886 25.2328 28.5341 24.9419 28.2177 24.9419C27.9014 24.9419 27.6468 25.2328 27.6468 25.6V29.3564C27.6468 29.7237 27.8977 30.0146 28.2177 30.0146Z" fill="#7D7D7D"/>
</svg>
