<svg width="101" height="40" viewBox="0 0 101 40" fill="none" xmlns="http://www.w3.org/2000/svg">
<rect x="0.5" y="0.5" width="100" height="39" rx="14.5" stroke="#F0F0F0"/>
<path d="M20.1426 16.9699H17.6035C17.3199 16.9699 17.0908 17.1226 17.0908 17.3899C17.0908 17.6572 17.3199 17.8017 17.6035 17.8017H18.2335V23.2317C18.2335 24.2381 18.899 25.0617 19.8017 25.0617H24.3999C25.2999 25.0617 25.9654 24.2435 25.9654 23.2317V17.8072H26.5463C26.8299 17.8072 27.059 17.6599 27.059 17.3954C27.059 17.1308 26.8299 16.9754 26.5463 16.9754H24.1599C24.1272 15.9581 23.2408 15.0908 22.1526 15.0908C21.0645 15.0908 20.1781 15.9581 20.1426 16.9699ZM21.1026 16.9699C21.1408 16.4517 21.5908 15.9199 22.1526 15.9199C22.7145 15.9199 23.1672 16.4517 23.1999 16.9699H21.1026ZM19.0626 23.229V17.8045H25.1363V23.2345C25.1363 23.7826 24.719 24.2272 24.3999 24.2272H19.8017C19.4826 24.2217 19.0654 23.7772 19.0654 23.229H19.0626ZM20.489 23.0108C20.7235 23.0108 20.9172 22.7926 20.9172 22.5172V19.6999C20.9172 19.4245 20.7263 19.2063 20.489 19.2063C20.2517 19.2063 20.0608 19.4245 20.0608 19.6999V22.5172C20.0608 22.7926 20.249 23.0108 20.489 23.0108ZM22.4635 22.5172V19.6999C22.4635 19.4245 22.2726 19.2063 22.0354 19.2063C21.7981 19.2063 21.6072 19.4245 21.6072 19.6999V22.5172C21.6072 22.7926 21.8008 23.0108 22.0354 23.0108C22.2699 23.0108 22.4635 22.7926 22.4635 22.5172ZM23.6635 23.0108C23.8981 23.0108 24.0917 22.7926 24.0917 22.5172V19.6999C24.0917 19.4245 23.9008 19.2063 23.6635 19.2063C23.4263 19.2063 23.2354 19.4245 23.2354 19.6999V22.5172C23.2354 22.7926 23.4235 23.0108 23.6635 23.0108Z" fill="#1E1E1E"/>
<path d="M44.116 14.742C45.18 14.742 46.0993 14.9427 46.874 15.344C47.658 15.736 48.2553 16.3007 48.666 17.038C49.086 17.7753 49.296 18.6433 49.296 19.642C49.296 20.6407 49.086 21.5087 48.666 22.246C48.2553 22.974 47.658 23.534 46.874 23.926C46.0993 24.3087 45.18 24.5 44.116 24.5H41.078V14.742H44.116ZM44.116 23.45C45.376 23.45 46.3373 23.1187 47 22.456C47.6627 21.784 47.994 20.846 47.994 19.642C47.994 18.4287 47.658 17.4813 46.986 16.8C46.3233 16.1187 45.3667 15.778 44.116 15.778H42.352V23.45H44.116ZM57.9764 20.37C57.9764 20.6127 57.9624 20.8693 57.9344 21.14H51.8024C51.8491 21.896 52.1058 22.4887 52.5724 22.918C53.0484 23.338 53.6224 23.548 54.2944 23.548C54.8451 23.548 55.3024 23.422 55.6664 23.17C56.0398 22.9087 56.3011 22.5633 56.4504 22.134H57.8224C57.6171 22.8713 57.2064 23.4733 56.5904 23.94C55.9744 24.3973 55.2091 24.626 54.2944 24.626C53.5664 24.626 52.9131 24.4627 52.3344 24.136C51.7651 23.8093 51.3171 23.3473 50.9904 22.75C50.6638 22.1433 50.5004 21.4433 50.5004 20.65C50.5004 19.8567 50.6591 19.1613 50.9764 18.564C51.2938 17.9667 51.7371 17.5093 52.3064 17.192C52.8851 16.8653 53.5478 16.702 54.2944 16.702C55.0224 16.702 55.6664 16.8607 56.2264 17.178C56.7864 17.4953 57.2158 17.934 57.5144 18.494C57.8224 19.0447 57.9764 19.67 57.9764 20.37ZM56.6604 20.104C56.6604 19.6187 56.5531 19.2033 56.3384 18.858C56.1238 18.5033 55.8298 18.2373 55.4564 18.06C55.0924 17.8733 54.6864 17.78 54.2384 17.78C53.5944 17.78 53.0438 17.9853 52.5864 18.396C52.1384 18.8067 51.8818 19.376 51.8164 20.104H56.6604ZM60.9321 14.14V24.5H59.6581V14.14H60.9321ZM70.1034 20.37C70.1034 20.6127 70.0894 20.8693 70.0614 21.14H63.9294C63.9761 21.896 64.2327 22.4887 64.6994 22.918C65.1754 23.338 65.7494 23.548 66.4214 23.548C66.9721 23.548 67.4294 23.422 67.7934 23.17C68.1667 22.9087 68.4281 22.5633 68.5774 22.134H69.9494C69.7441 22.8713 69.3334 23.4733 68.7174 23.94C68.1014 24.3973 67.3361 24.626 66.4214 24.626C65.6934 24.626 65.0401 24.4627 64.4614 24.136C63.8921 23.8093 63.4441 23.3473 63.1174 22.75C62.7907 22.1433 62.6274 21.4433 62.6274 20.65C62.6274 19.8567 62.7861 19.1613 63.1034 18.564C63.4207 17.9667 63.8641 17.5093 64.4334 17.192C65.0121 16.8653 65.6747 16.702 66.4214 16.702C67.1494 16.702 67.7934 16.8607 68.3534 17.178C68.9134 17.4953 69.3427 17.934 69.6414 18.494C69.9494 19.0447 70.1034 19.67 70.1034 20.37ZM68.7874 20.104C68.7874 19.6187 68.6801 19.2033 68.4654 18.858C68.2507 18.5033 67.9567 18.2373 67.5834 18.06C67.2194 17.8733 66.8134 17.78 66.3654 17.78C65.7214 17.78 65.1707 17.9853 64.7134 18.396C64.2654 18.8067 64.0087 19.376 63.9434 20.104H68.7874ZM73.339 17.878V22.4C73.339 22.7733 73.4184 23.0393 73.577 23.198C73.7357 23.3473 74.011 23.422 74.403 23.422H75.341V24.5H74.193C73.4837 24.5 72.9517 24.3367 72.597 24.01C72.2424 23.6833 72.065 23.1467 72.065 22.4V17.878H71.071V16.828H72.065V14.896H73.339V16.828H75.341V17.878H73.339ZM83.8846 20.37C83.8846 20.6127 83.8706 20.8693 83.8426 21.14H77.7106C77.7573 21.896 78.014 22.4887 78.4806 22.918C78.9566 23.338 79.5306 23.548 80.2026 23.548C80.7533 23.548 81.2106 23.422 81.5746 23.17C81.948 22.9087 82.2093 22.5633 82.3586 22.134H83.7306C83.5253 22.8713 83.1146 23.4733 82.4986 23.94C81.8826 24.3973 81.1173 24.626 80.2026 24.626C79.4746 24.626 78.8213 24.4627 78.2426 24.136C77.6733 23.8093 77.2253 23.3473 76.8986 22.75C76.572 22.1433 76.4086 21.4433 76.4086 20.65C76.4086 19.8567 76.5673 19.1613 76.8846 18.564C77.202 17.9667 77.6453 17.5093 78.2146 17.192C78.7933 16.8653 79.456 16.702 80.2026 16.702C80.9306 16.702 81.5746 16.8607 82.1346 17.178C82.6946 17.4953 83.124 17.934 83.4226 18.494C83.7306 19.0447 83.8846 19.67 83.8846 20.37ZM82.5686 20.104C82.5686 19.6187 82.4613 19.2033 82.2466 18.858C82.032 18.5033 81.738 18.2373 81.3646 18.06C81.0006 17.8733 80.5946 17.78 80.1466 17.78C79.5026 17.78 78.952 17.9853 78.4946 18.396C78.0466 18.8067 77.79 19.376 77.7246 20.104H82.5686Z" fill="#1E1E1E"/>
</svg>
