<svg width="24" height="24" viewBox="0 0 24 24" fill="none" xmlns="http://www.w3.org/2000/svg">
<path d="M20.25 20.25C20.043 20.25 19.875 20.082 19.875 19.875V10.125C19.875 9.918 20.043 9.75 20.25 9.75C20.457 9.75 20.625 9.918 20.625 10.125V19.875C20.625 20.082 20.457 20.25 20.25 20.25Z" fill="black"/>
<path d="M3.75 20.25C3.543 20.25 3.375 20.082 3.375 19.875V10.125C3.375 9.918 3.543 9.75 3.75 9.75C3.957 9.75 4.125 9.918 4.125 10.125V19.875C4.125 20.082 3.957 20.25 3.75 20.25Z" fill="black"/>
<path d="M12 10.824C11.9257 10.824 11.8522 10.8023 11.7885 10.7588L2.66475 4.5158C2.49375 4.3988 2.45025 4.16555 2.56725 3.99455C2.68425 3.82355 2.91675 3.7793 3.0885 3.89705L12 9.99455L18.7185 5.3978C18.8902 5.2808 19.1235 5.32505 19.2397 5.4953C19.3567 5.6663 19.3132 5.89955 19.1423 6.01655L12.2122 10.758C12.1477 10.8023 12.0742 10.824 12 10.824Z" fill="black"/>
<path d="M21.375 20.25H2.625C1.5915 20.25 0.75 19.4085 0.75 18.375V5.625C0.75 5.418 0.918 5.25 1.125 5.25C1.332 5.25 1.5 5.418 1.5 5.625V18.375C1.5 18.9952 2.00475 19.5 2.625 19.5H21.375C21.9953 19.5 22.5 18.9952 22.5 18.375V5.625C22.5 5.00475 21.9953 4.5 21.375 4.5C21.168 4.5 21 4.332 21 4.125C21 3.918 21.168 3.75 21.375 3.75C22.4085 3.75 23.25 4.5915 23.25 5.625V18.375C23.25 19.4085 22.4085 20.25 21.375 20.25Z" fill="black"/>
<path d="M12 14.25C11.9257 14.25 11.8515 14.2283 11.787 14.184L1.5495 7.1235C1.0485 6.7785 0.75 6.2085 0.75 5.60025C0.75 4.58025 1.58025 3.75 2.60025 3.75H21.399C22.4198 3.75 23.25 4.58025 23.25 5.60025C23.25 6.2085 22.9515 6.77775 22.4505 7.1235L12.213 14.184C12.1485 14.2283 12.0743 14.25 12 14.25ZM2.60025 4.5C1.9935 4.5 1.5 4.9935 1.5 5.60025C1.5 5.9625 1.67775 6.30075 1.9755 6.50625L12 13.4198L22.0245 6.50625C22.3223 6.30075 22.5 5.9625 22.5 5.60025C22.5 4.9935 22.0065 4.5 21.3997 4.5H2.60025Z" fill="black"/>
</svg>
