<svg width="48" height="48" viewBox="0 0 48 48" fill="none" xmlns="http://www.w3.org/2000/svg">
<rect x="0.5" y="0.5" width="47" height="47" rx="7.5" stroke="#F0F0F0"/>
<g clip-path="url(#clip0_44020_15297)">
<path d="M20.1826 22.3234H14.3856C13.7986 22.3228 13.2358 22.0895 12.8207 21.6745C12.4056 21.2595 12.1721 20.6968 12.1714 20.1099V14.3849C12.1721 13.7979 12.4056 13.2352 12.8207 12.8203C13.2358 12.4053 13.7986 12.1719 14.3856 12.1714H20.1826C20.7694 12.1721 21.332 12.4056 21.747 12.8205C22.1619 13.2355 22.3953 13.798 22.3961 14.3849V20.1099C22.3953 20.6967 22.1619 21.2593 21.747 21.6743C21.332 22.0892 20.7694 22.3227 20.1826 22.3234ZM14.3856 13.8857C14.2532 13.8859 14.1262 13.9385 14.0325 14.032C13.9388 14.1256 13.886 14.2525 13.8857 14.3849V20.1099C13.886 20.2423 13.9388 20.3692 14.0325 20.4627C14.1262 20.5563 14.2532 20.6089 14.3856 20.6091H20.1826C20.3149 20.6089 20.4418 20.5563 20.5354 20.4627C20.629 20.3691 20.6816 20.2422 20.6818 20.1099V14.3849C20.6816 14.2525 20.629 14.1257 20.5354 14.0321C20.4418 13.9385 20.3149 13.8859 20.1826 13.8857H14.3856Z" fill="#7D7D7D"/>
<path d="M20.2109 35.8285H14.4139C13.8269 35.8278 13.2641 35.5943 12.849 35.1792C12.4339 34.7641 12.2004 34.2014 12.1997 33.6143V27.89C12.2004 27.3031 12.434 26.7404 12.8491 26.3254C13.2642 25.9104 13.8269 25.6771 14.4139 25.6765H20.2109C20.7975 25.6776 21.3597 25.9112 21.7744 26.3261C22.189 26.741 22.4223 27.3034 22.423 27.89V33.6143C22.4225 34.2011 22.1893 34.7636 21.7746 35.1787C21.36 35.5937 20.7976 35.8274 20.2109 35.8285ZM14.4139 27.3908C14.2815 27.391 14.1545 27.4436 14.0608 27.5372C13.9672 27.6307 13.9144 27.7576 13.914 27.89V33.6143C13.9142 33.7469 13.9669 33.8739 14.0606 33.9676C14.1543 34.0613 14.2814 34.114 14.4139 34.1142H20.2109C20.3433 34.1139 20.4702 34.0611 20.5637 33.9674C20.6573 33.8737 20.7099 33.7467 20.7101 33.6143V27.89C20.7099 27.7577 20.6573 27.6308 20.5637 27.5372C20.4701 27.4436 20.3432 27.391 20.2109 27.3908H14.4139Z" fill="#7D7D7D"/>
<path d="M33.6152 35.8285H27.8182C27.2312 35.8278 26.6684 35.5943 26.2533 35.1792C25.8382 34.7641 25.6047 34.2014 25.604 33.6143V27.89C25.6047 27.3031 25.8383 26.7404 26.2534 26.3254C26.6685 25.9104 27.2312 25.6771 27.8182 25.6765H33.6152C34.202 25.6772 34.7646 25.9107 35.1796 26.3256C35.5945 26.7406 35.828 27.3032 35.8287 27.89V33.6143C35.8281 34.2013 35.5948 34.7641 35.1798 35.1792C34.7648 35.5943 34.2022 35.8278 33.6152 35.8285ZM27.8182 27.3942C27.6858 27.3944 27.5588 27.447 27.4651 27.5406C27.3715 27.6342 27.3187 27.761 27.3183 27.8934V33.6178C27.3185 33.7503 27.3712 33.8773 27.4649 33.971C27.5586 34.0647 27.6857 34.1175 27.8182 34.1177H33.6152C33.7476 34.1173 33.8745 34.0645 33.968 33.9708C34.0616 33.8771 34.1142 33.7502 34.1144 33.6178V27.89C34.1142 27.7577 34.0616 27.6308 33.968 27.5372C33.8744 27.4436 33.7475 27.391 33.6152 27.3908L27.8182 27.3942Z" fill="#7D7D7D"/>
<path d="M30.7202 22.3235C29.7182 22.316 28.7409 22.0121 27.9114 21.45C27.0819 20.888 26.4374 20.0929 26.0591 19.1651C25.6808 18.2372 25.5857 17.2182 25.7857 16.2363C25.9858 15.2545 26.472 14.3539 27.1831 13.648C27.8943 12.9421 28.7985 12.4626 29.7817 12.2698C30.765 12.0771 31.7833 12.1797 32.7083 12.5649C33.6333 12.95 34.4236 13.6004 34.9795 14.434C35.5355 15.2677 35.8321 16.2472 35.8322 17.2492C35.8255 18.5994 35.2835 19.8919 34.3252 20.8432C33.3669 21.7944 32.0704 22.3268 30.7202 22.3235ZM30.7202 13.8892C30.0573 13.8966 29.4114 14.1 28.8638 14.4737C28.3163 14.8474 27.8915 15.3747 27.643 15.9893C27.3944 16.6039 27.3332 17.2782 27.4671 17.9275C27.601 18.5768 27.9239 19.1719 28.3953 19.6381C28.8667 20.1042 29.4654 20.4205 30.1161 20.5471C30.7669 20.6737 31.4405 20.605 32.0523 20.3497C32.664 20.0943 33.1866 19.6636 33.5541 19.1119C33.9217 18.5602 34.1178 17.9121 34.1179 17.2492C34.1124 16.3529 33.7516 15.4954 33.1146 14.8648C32.4776 14.2342 31.6165 13.8821 30.7202 13.8858V13.8892Z" fill="#7D7D7D"/>
</g>
<defs>
<clipPath id="clip0_44020_15297">
<rect width="24" height="24" fill="white" transform="translate(12 12)"/>
</clipPath>
</defs>
</svg>
