<svg width="33" height="28" viewBox="0 0 33 28" fill="none" xmlns="http://www.w3.org/2000/svg">
<rect x="1.10553" y="0.695068" width="31.3945" height="26.6098" rx="3.5" stroke="#F0F0F0"/>
<path d="M20.4142 21.8049C20.5301 21.8048 20.6434 21.7704 20.7397 21.706C20.8361 21.6416 20.9111 21.5501 20.9555 21.443C20.9998 21.3359 21.0114 21.2181 20.9887 21.1044C20.9661 20.9908 20.9102 20.8864 20.8283 20.8045L14.02 13.9963L20.8283 7.18806C20.935 7.07755 20.994 6.92955 20.9927 6.77591C20.9914 6.62228 20.9297 6.47532 20.8211 6.36669C20.7125 6.25805 20.5655 6.19643 20.4119 6.19509C20.2583 6.19376 20.1102 6.25281 19.9997 6.35955L12.7771 13.5822C12.6672 13.6921 12.6055 13.8411 12.6055 13.9965C12.6055 14.1518 12.6672 14.3008 12.7771 14.4107L19.9997 21.6334C20.0542 21.6878 20.1188 21.7309 20.1899 21.7603C20.261 21.7898 20.3372 21.8049 20.4142 21.8049Z" fill="#7D7D7D"/>
</svg>
