<svg width="162" height="40" viewBox="0 0 162 40" fill="none" xmlns="http://www.w3.org/2000/svg">
<rect x="0.5" y="0.5" width="161" height="39" rx="14.5" fill="#EFEFFD"/>
<rect x="0.5" y="0.5" width="161" height="39" rx="14.5" stroke="#F0F0F0"/>
<path d="M31.9399 14.0323C31.8664 13.9679 31.7805 13.9194 31.6876 13.89C31.5947 13.8605 31.4968 13.8506 31.3999 13.8609C29.9905 14.0192 28.6159 14.4073 27.3299 15.0101C26.5974 15.4188 25.9243 15.9277 25.3299 16.5222C25.2241 16.6314 25.0812 16.6962 24.9299 16.7036C24.1129 16.7821 23.3185 17.0182 22.5899 17.3992C22.0508 17.6559 21.5548 17.9961 21.1199 18.4073C21.0446 18.4982 20.9939 18.6074 20.9729 18.724C20.9519 18.8406 20.9612 18.9607 20.9999 19.0726C21.0389 19.1905 21.1104 19.2949 21.206 19.3734C21.3016 19.452 21.4175 19.5015 21.5399 19.5161L22.6099 19.6673C22.5885 19.7706 22.5938 19.8777 22.6253 19.9784C22.6569 20.079 22.7135 20.1698 22.7899 20.2419L25.7199 23.1956C25.7921 23.2718 25.8822 23.3284 25.9818 23.3601C26.0815 23.3918 26.1875 23.3976 26.2899 23.377L26.4399 24.4456C26.4564 24.5698 26.5074 24.6868 26.5871 24.7832C26.6667 24.8795 26.7717 24.9511 26.8899 24.9899C26.9592 25.0043 27.0307 25.0043 27.0999 24.9899C27.1879 24.9913 27.2752 24.974 27.3561 24.9393C27.4371 24.9046 27.5099 24.8531 27.5699 24.7883C28.039 24.3092 28.4244 23.7537 28.7099 23.1452C29.0372 22.4684 29.2405 21.7375 29.3099 20.9879C29.3168 20.8323 29.381 20.6849 29.4899 20.5746C30.1351 19.9036 30.6868 19.1474 31.1299 18.3266C31.7551 17.1277 32.0973 15.7996 32.1299 14.4456C32.116 14.2898 32.0488 14.1437 31.9399 14.0323ZM30.4799 18.0645C30.0697 18.7947 29.5727 19.4717 28.9999 20.0806C28.7626 20.3134 28.617 20.625 28.5899 20.9577C28.5111 21.6303 28.3112 22.2828 27.9999 22.8831C27.7691 23.3624 27.4729 23.8069 27.1199 24.2036L26.9999 22.8528C26.9909 22.7708 26.9588 22.693 26.9074 22.6287C26.8561 22.5645 26.7875 22.5163 26.7099 22.4899C26.6674 22.4784 26.6225 22.4784 26.5799 22.4899C26.4655 22.4891 26.3536 22.5244 26.2599 22.5907H26.2099L23.3899 19.8185C23.4385 19.753 23.4719 19.6773 23.4874 19.597C23.503 19.5168 23.5005 19.434 23.4799 19.3548C23.4504 19.287 23.4065 19.2265 23.3512 19.1777C23.2959 19.1289 23.2306 19.093 23.1599 19.0726L21.8099 18.871C22.1689 18.5495 22.5692 18.2783 22.9999 18.0645C23.6206 17.7249 24.299 17.5061 24.9999 17.4193C25.3309 17.4133 25.6479 17.2841 25.8899 17.0564C26.4294 16.5025 27.0378 16.0214 27.6999 15.625C28.8717 15.0913 30.121 14.7509 31.3999 14.6169C31.3585 15.8219 31.0438 17.0012 30.4799 18.0645Z" fill="#1958F7"/>
<path d="M22.22 21.875C21.8616 21.9608 21.5278 22.1292 21.245 22.3671C20.9621 22.605 20.7379 22.9059 20.59 23.246C20.3048 23.9214 20.0643 24.6151 19.87 25.3226C19.8402 25.4226 19.8341 25.5283 19.8523 25.6311C19.8705 25.7339 19.9125 25.8309 19.9748 25.9144C20.0371 25.9978 20.118 26.0653 20.211 26.1113C20.304 26.1574 20.4064 26.1807 20.51 26.1794C20.5696 26.1894 20.6304 26.1894 20.69 26.1794C21.5151 25.9624 22.3186 25.6688 23.09 25.3024C23.373 25.1572 23.6177 24.9462 23.8038 24.6868C23.9899 24.4273 24.112 24.1269 24.16 23.8105C24.1944 23.5443 24.1652 23.2736 24.0747 23.0211C23.9843 22.7686 23.8352 22.5415 23.64 22.3589C23.461 22.1667 23.2378 22.0221 22.9901 21.9377C22.7424 21.8533 22.4779 21.8317 22.22 21.875ZM22.74 24.6169C22.0665 24.9434 21.3632 25.2033 20.64 25.3932C20.8092 24.7714 21.0197 24.1618 21.27 23.5686C21.3678 23.339 21.5158 23.1346 21.7027 22.9705C21.8897 22.8065 22.1109 22.687 22.35 22.621H22.5C22.6169 22.623 22.7323 22.6491 22.8389 22.6977C22.9455 22.7462 23.0411 22.8162 23.12 22.9032C23.2274 23.0081 23.31 23.1359 23.362 23.2772C23.4139 23.4185 23.4337 23.5697 23.42 23.7198C23.3795 23.9107 23.2975 24.0902 23.1799 24.2453C23.0623 24.4004 22.9121 24.5274 22.74 24.6169Z" fill="#1958F7"/>
<path d="M46.352 23.464H49.768V24.5H45.078V14.742H46.352V23.464ZM50.645 20.636C50.645 19.852 50.8036 19.166 51.121 18.578C51.4383 17.9807 51.8723 17.5187 52.423 17.192C52.983 16.8653 53.6036 16.702 54.285 16.702C54.957 16.702 55.5403 16.8467 56.035 17.136C56.5296 17.4253 56.8983 17.7893 57.141 18.228V16.828H58.429V24.5H57.141V23.072C56.889 23.52 56.511 23.8933 56.007 24.192C55.5123 24.4813 54.9336 24.626 54.271 24.626C53.5896 24.626 52.9736 24.458 52.423 24.122C51.8723 23.786 51.4383 23.3147 51.121 22.708C50.8036 22.1013 50.645 21.4107 50.645 20.636ZM57.141 20.65C57.141 20.0713 57.0243 19.5673 56.791 19.138C56.5576 18.7087 56.2403 18.382 55.839 18.158C55.447 17.9247 55.013 17.808 54.537 17.808C54.061 17.808 53.627 17.92 53.235 18.144C52.843 18.368 52.5303 18.6947 52.297 19.124C52.0636 19.5533 51.947 20.0573 51.947 20.636C51.947 21.224 52.0636 21.7373 52.297 22.176C52.5303 22.6053 52.843 22.9367 53.235 23.17C53.627 23.394 54.061 23.506 54.537 23.506C55.013 23.506 55.447 23.394 55.839 23.17C56.2403 22.9367 56.5576 22.6053 56.791 22.176C57.0243 21.7373 57.141 21.2287 57.141 20.65ZM67.3859 16.828V24.5H66.1119V23.366C65.8692 23.758 65.5286 24.066 65.0899 24.29C64.6606 24.5047 64.1846 24.612 63.6619 24.612C63.0646 24.612 62.5279 24.4907 62.0519 24.248C61.5759 23.996 61.1979 23.6227 60.9179 23.128C60.6472 22.6333 60.5119 22.0313 60.5119 21.322V16.828H61.7719V21.154C61.7719 21.91 61.9632 22.4933 62.3459 22.904C62.7286 23.3053 63.2512 23.506 63.9139 23.506C64.5952 23.506 65.1319 23.296 65.5239 22.876C65.9159 22.456 66.1119 21.8447 66.1119 21.042V16.828H67.3859ZM73.275 16.688C74.2083 16.688 74.9643 16.9727 75.543 17.542C76.1217 18.102 76.411 18.914 76.411 19.978V24.5H75.151V20.16C75.151 19.3947 74.9597 18.8113 74.577 18.41C74.1943 17.9993 73.6717 17.794 73.009 17.794C72.337 17.794 71.8003 18.004 71.399 18.424C71.007 18.844 70.811 19.4553 70.811 20.258V24.5H69.537V16.828H70.811V17.92C71.063 17.528 71.4037 17.2247 71.833 17.01C72.2717 16.7953 72.7523 16.688 73.275 16.688ZM78.0161 20.65C78.0161 19.8567 78.1747 19.166 78.4921 18.578C78.8094 17.9807 79.2481 17.5187 79.8081 17.192C80.3774 16.8653 81.0261 16.702 81.7541 16.702C82.6967 16.702 83.4714 16.9307 84.0781 17.388C84.6941 17.8453 85.1001 18.48 85.2961 19.292H83.9241C83.7934 18.8253 83.5367 18.4567 83.1541 18.186C82.7807 17.9153 82.3141 17.78 81.7541 17.78C81.0261 17.78 80.4381 18.032 79.9901 18.536C79.5421 19.0307 79.3181 19.7353 79.3181 20.65C79.3181 21.574 79.5421 22.288 79.9901 22.792C80.4381 23.296 81.0261 23.548 81.7541 23.548C82.3141 23.548 82.7807 23.4173 83.1541 23.156C83.5274 22.8947 83.7841 22.5213 83.9241 22.036H85.2961C85.0907 22.82 84.6801 23.45 84.0641 23.926C83.4481 24.3927 82.6781 24.626 81.7541 24.626C81.0261 24.626 80.3774 24.4627 79.8081 24.136C79.2481 23.8093 78.8094 23.3473 78.4921 22.75C78.1747 22.1527 78.0161 21.4527 78.0161 20.65ZM90.804 16.688C91.3826 16.688 91.9053 16.814 92.372 17.066C92.8386 17.3087 93.2026 17.6773 93.464 18.172C93.7346 18.6667 93.87 19.2687 93.87 19.978V24.5H92.61V20.16C92.61 19.3947 92.4186 18.8113 92.036 18.41C91.6533 17.9993 91.1306 17.794 90.468 17.794C89.796 17.794 89.2593 18.004 88.858 18.424C88.466 18.844 88.27 19.4553 88.27 20.258V24.5H86.996V14.14H88.27V17.92C88.522 17.528 88.8673 17.2247 89.306 17.01C89.754 16.7953 90.2533 16.688 90.804 16.688ZM102.777 24.598C102.133 24.598 101.555 24.486 101.041 24.262C100.537 24.0287 100.141 23.7113 99.8515 23.31C99.5621 22.8993 99.4128 22.428 99.4035 21.896H100.761C100.808 22.3533 100.995 22.7407 101.321 23.058C101.657 23.366 102.143 23.52 102.777 23.52C103.384 23.52 103.86 23.3707 104.205 23.072C104.56 22.764 104.737 22.372 104.737 21.896C104.737 21.5227 104.635 21.2193 104.429 20.986C104.224 20.7527 103.967 20.5753 103.659 20.454C103.351 20.3327 102.936 20.202 102.413 20.062C101.769 19.894 101.251 19.726 100.859 19.558C100.477 19.39 100.145 19.1287 99.8655 18.774C99.5948 18.41 99.4595 17.9247 99.4595 17.318C99.4595 16.786 99.5948 16.3147 99.8655 15.904C100.136 15.4933 100.514 15.176 100.999 14.952C101.494 14.728 102.059 14.616 102.693 14.616C103.608 14.616 104.355 14.8447 104.933 15.302C105.521 15.7593 105.853 16.366 105.927 17.122H104.527C104.481 16.7487 104.285 16.422 103.939 16.142C103.594 15.8527 103.137 15.708 102.567 15.708C102.035 15.708 101.601 15.848 101.265 16.128C100.929 16.3987 100.761 16.7813 100.761 17.276C100.761 17.6307 100.859 17.92 101.055 18.144C101.261 18.368 101.508 18.5407 101.797 18.662C102.096 18.774 102.511 18.9047 103.043 19.054C103.687 19.2313 104.205 19.4087 104.597 19.586C104.989 19.754 105.325 20.02 105.605 20.384C105.885 20.7387 106.025 21.224 106.025 21.84C106.025 22.316 105.899 22.764 105.647 23.184C105.395 23.604 105.022 23.9447 104.527 24.206C104.033 24.4673 103.449 24.598 102.777 24.598ZM114.704 16.828V24.5H113.43V23.366C113.188 23.758 112.847 24.066 112.408 24.29C111.979 24.5047 111.503 24.612 110.98 24.612C110.383 24.612 109.846 24.4907 109.37 24.248C108.894 23.996 108.516 23.6227 108.236 23.128C107.966 22.6333 107.83 22.0313 107.83 21.322V16.828H109.09V21.154C109.09 21.91 109.282 22.4933 109.664 22.904C110.047 23.3053 110.57 23.506 111.232 23.506C111.914 23.506 112.45 23.296 112.842 22.876C113.234 22.456 113.43 21.8447 113.43 21.042V16.828H114.704ZM118.129 18.074C118.353 17.6353 118.671 17.2947 119.081 17.052C119.501 16.8093 120.01 16.688 120.607 16.688V18.004H120.271C118.843 18.004 118.129 18.7787 118.129 20.328V24.5H116.855V16.828H118.129V18.074ZM124.934 23.324L127.314 16.828H128.672L125.662 24.5H124.178L121.168 16.828H122.54L124.934 23.324ZM136.926 20.37C136.926 20.6127 136.912 20.8693 136.884 21.14H130.752C130.798 21.896 131.055 22.4887 131.522 22.918C131.998 23.338 132.572 23.548 133.244 23.548C133.794 23.548 134.252 23.422 134.616 23.17C134.989 22.9087 135.25 22.5633 135.4 22.134H136.772C136.566 22.8713 136.156 23.4733 135.54 23.94C134.924 24.3973 134.158 24.626 133.244 24.626C132.516 24.626 131.862 24.4627 131.284 24.136C130.714 23.8093 130.266 23.3473 129.94 22.75C129.613 22.1433 129.45 21.4433 129.45 20.65C129.45 19.8567 129.608 19.1613 129.926 18.564C130.243 17.9667 130.686 17.5093 131.256 17.192C131.834 16.8653 132.497 16.702 133.244 16.702C133.972 16.702 134.616 16.8607 135.176 17.178C135.736 17.4953 136.165 17.934 136.464 18.494C136.772 19.0447 136.926 19.67 136.926 20.37ZM135.61 20.104C135.61 19.6187 135.502 19.2033 135.288 18.858C135.073 18.5033 134.779 18.2373 134.406 18.06C134.042 17.8733 133.636 17.78 133.188 17.78C132.544 17.78 131.993 17.9853 131.536 18.396C131.088 18.8067 130.831 19.376 130.766 20.104H135.61ZM145.215 16.828L140.595 28.112H139.279L140.791 24.416L137.697 16.828H139.111L141.519 23.044L143.899 16.828H145.215Z" fill="#1958F7"/>
</svg>
