<svg width="24" height="24" viewBox="0 0 24 24" fill="none" xmlns="http://www.w3.org/2000/svg">
<path d="M17.5 24H6.5C5.1215 24 4 22.8785 4 21.5V2.5C4 1.1215 5.1215 0 6.5 0H17.5C18.8785 0 20 1.1215 20 2.5V21.5C20 22.8785 18.8785 24 17.5 24ZM6.5 1C5.673 1 5 1.673 5 2.5V21.5C5 22.327 5.673 23 6.5 23H17.5C18.327 23 19 22.327 19 21.5V2.5C19 1.673 18.327 1 17.5 1H6.5Z" fill="black"/>
<path d="M19.5 5H4.5C4.2235 5 4 4.776 4 4.5C4 4.224 4.2235 4 4.5 4H19.5C19.7765 4 20 4.224 20 4.5C20 4.776 19.7765 5 19.5 5Z" fill="black"/>
<path d="M19.5 20H4.5C4.2235 20 4 19.776 4 19.5C4 19.224 4.2235 19 4.5 19H19.5C19.7765 19 20 19.224 20 19.5C20 19.776 19.7765 20 19.5 20Z" fill="black"/>
<path d="M12 20.5C11.448 20.5 11 20.948 11 21.5C11 22.052 11.448 22.5 12 22.5C12.552 22.5 13 22.052 13 21.5C13 20.948 12.552 20.5 12 20.5Z" fill="black"/>
<path d="M14.5 3H9.5C9.2235 3 9 2.776 9 2.5C9 2.224 9.2235 2 9.5 2H14.5C14.7765 2 15 2.224 15 2.5C15 2.776 14.7765 3 14.5 3Z" fill="black"/>
</svg>
