<svg width="12" height="12" viewBox="0 0 12 12" fill="none" xmlns="http://www.w3.org/2000/svg">
<g clip-path="url(#clip0_618_5610)">
<path d="M9.20211 2.18922C9.2049 2.19185 9.20698 2.19514 9.20817 2.19878C9.20936 2.20243 9.20961 2.20632 9.2089 2.21008L9.11972 2.72022C9.10662 2.79367 9.11446 2.86934 9.14234 2.93855C9.17023 3.00776 9.21703 3.06773 9.27739 3.11159C9.33776 3.15545 9.40925 3.18143 9.48369 3.18657C9.55813 3.19171 9.63251 3.17578 9.69833 3.14063L10.1561 2.89802C10.1595 2.89633 10.1632 2.89547 10.167 2.8955C10.1708 2.89553 10.1745 2.89645 10.1779 2.89819L10.6353 3.14044C10.7011 3.17541 10.7754 3.1912 10.8498 3.186C10.9242 3.1808 10.9956 3.15483 11.0559 3.11103C11.1162 3.06724 11.163 3.00739 11.191 2.93829C11.2189 2.8692 11.227 2.79364 11.2141 2.72022L11.1247 2.2099C11.1241 2.20619 11.1244 2.20238 11.1256 2.19881C11.1268 2.19524 11.1288 2.19201 11.1315 2.1894L11.5034 1.82923C11.5569 1.7774 11.5949 1.71158 11.6128 1.63926C11.6308 1.56695 11.6282 1.49103 11.6052 1.42015C11.5822 1.34927 11.5397 1.28626 11.4827 1.2383C11.4257 1.19033 11.3563 1.15933 11.2826 1.14882L10.77 1.07612C10.7662 1.07562 10.7626 1.07418 10.7595 1.07195C10.7564 1.06971 10.7539 1.06674 10.7522 1.0633L10.5245 0.598129C10.492 0.531024 10.4412 0.47447 10.378 0.434991C10.3147 0.395512 10.2416 0.374717 10.1671 0.375004H10.1669C10.0923 0.374689 10.0191 0.39547 9.95581 0.434948C9.8925 0.474426 9.84165 0.530995 9.8091 0.598129L9.58152 1.06313C9.57985 1.06654 9.57738 1.06949 9.57431 1.07172C9.57125 1.07396 9.56768 1.07541 9.56393 1.07595L9.05123 1.14865C8.97744 1.15913 8.90806 1.19011 8.85101 1.23806C8.79395 1.28602 8.75149 1.34902 8.72846 1.41991C8.70544 1.4908 8.70277 1.56673 8.72076 1.63906C8.73875 1.71139 8.77667 1.77722 8.83022 1.82907L9.20211 2.18922ZM9.10397 1.52014L9.61684 1.4475C9.68119 1.43831 9.74231 1.41351 9.79488 1.37527C9.84744 1.33704 9.88986 1.28652 9.91842 1.22813L10.146 0.763129C10.1477 0.759018 10.1506 0.755535 10.1543 0.753178C10.1581 0.75082 10.1625 0.749709 10.1669 0.750004C10.1712 0.749684 10.1756 0.750754 10.1793 0.753058C10.183 0.755363 10.1859 0.758784 10.1875 0.762828L10.4151 1.22773C10.4436 1.28625 10.4861 1.33688 10.5387 1.37519C10.5913 1.41349 10.6525 1.43831 10.717 1.44745L11.2295 1.52014C11.2338 1.52074 11.2379 1.52252 11.2412 1.5253C11.2445 1.52808 11.247 1.53174 11.2484 1.53587C11.2497 1.53999 11.2499 1.54441 11.2488 1.54862C11.2478 1.55284 11.2456 1.55668 11.2425 1.5597L10.8706 1.92C10.8239 1.9652 10.789 2.02114 10.7689 2.08294C10.7488 2.14473 10.7442 2.21051 10.7554 2.27451L10.8446 2.78464C10.8457 2.78893 10.8454 2.79346 10.8437 2.79757C10.8421 2.80168 10.8392 2.80516 10.8354 2.80752C10.8321 2.81039 10.8278 2.8121 10.8234 2.8124C10.819 2.8127 10.8146 2.81156 10.8109 2.80917L10.3535 2.56688C10.2961 2.53633 10.2321 2.52035 10.167 2.52035C10.102 2.52035 10.038 2.53633 9.98059 2.56688L9.52283 2.8093C9.51913 2.81168 9.51476 2.8128 9.51037 2.8125C9.50598 2.8122 9.5018 2.8105 9.49845 2.80765C9.49471 2.80529 9.4918 2.80181 9.49016 2.7977C9.48851 2.79359 9.48821 2.78906 9.4893 2.78477L9.57848 2.275C9.58971 2.2109 9.58506 2.14502 9.56495 2.08313C9.54484 2.02124 9.50987 1.96522 9.46311 1.91997L9.09098 1.5597C9.08789 1.55667 9.0857 1.55283 9.08467 1.54862C9.08365 1.54441 9.08382 1.54 9.08517 1.53588C9.08653 1.53176 9.089 1.52811 9.09233 1.52533C9.09565 1.52254 9.09968 1.52075 9.10397 1.52014Z" fill="#1E1E1E"/>
<path d="M8.0625 0.375H0.5625C0.512772 0.375 0.465081 0.394754 0.429917 0.429917C0.394754 0.465081 0.375 0.512772 0.375 0.5625V3.5625C0.375002 3.59534 0.38363 3.6276 0.40002 3.65606C0.416409 3.68452 0.439986 3.70818 0.46839 3.72466C0.496795 3.74114 0.52903 3.74988 0.561871 3.74999C0.594711 3.7501 0.627004 3.74158 0.655519 3.72529L1.9248 3H8.0625C8.11223 3 8.15992 2.98025 8.19508 2.94508C8.23025 2.90992 8.25 2.86223 8.25 2.8125V0.5625C8.25 0.512772 8.23025 0.465081 8.19508 0.429917C8.15992 0.394754 8.11223 0.375 8.0625 0.375ZM7.875 2.625H1.875C1.84238 2.62506 1.81033 2.63357 1.78198 2.64971L0.75 3.23933V0.75H7.875V2.625Z" fill="black"/>
<path d="M2.4375 1.875H6.1875C6.23723 1.875 6.28492 1.85525 6.32008 1.82008C6.35525 1.78492 6.375 1.73723 6.375 1.6875C6.375 1.63777 6.35525 1.59008 6.32008 1.55492C6.28492 1.51975 6.23723 1.5 6.1875 1.5H2.4375C2.38777 1.5 2.34008 1.51975 2.30492 1.55492C2.26975 1.59008 2.25 1.63777 2.25 1.6875C2.25 1.73723 2.26975 1.78492 2.30492 1.82008C2.34008 1.85525 2.38777 1.875 2.4375 1.875Z" fill="black"/>
<path d="M11.2826 5.08632L10.77 5.01362C10.7662 5.01312 10.7626 5.01168 10.7595 5.00945C10.7564 5.00721 10.7539 5.00424 10.7522 5.0008L10.5244 4.5358C10.492 4.46867 10.4412 4.41209 10.378 4.37258C10.3147 4.33307 10.2416 4.31225 10.1671 4.3125H10.1669C10.0923 4.31219 10.0191 4.33297 9.95581 4.37245C9.8925 4.41193 9.84165 4.46849 9.8091 4.53563L9.58152 5.00063C9.57985 5.00404 9.57738 5.00699 9.57431 5.00922C9.57125 5.01146 9.56768 5.01291 9.56393 5.01345L9.05123 5.08615C8.97744 5.09663 8.90806 5.12761 8.85101 5.17556C8.79395 5.22352 8.75149 5.28652 8.72846 5.35741C8.70544 5.4283 8.70277 5.50423 8.72076 5.57656C8.73875 5.64889 8.77667 5.71472 8.83022 5.76657L9.20211 6.12657C9.2049 6.1292 9.20698 6.13249 9.20817 6.13613C9.20936 6.13978 9.20961 6.14367 9.2089 6.14743L9.11972 6.65757C9.10659 6.73104 9.1144 6.80672 9.14227 6.87595C9.17014 6.94519 9.21694 7.00518 9.27731 7.04906C9.33768 7.09295 9.40919 7.11894 9.48364 7.12408C9.5581 7.12922 9.6325 7.1133 9.69833 7.07813L10.1561 6.83552C10.1595 6.83383 10.1632 6.83297 10.167 6.833C10.1708 6.83303 10.1745 6.83395 10.1779 6.83569L10.6353 7.07794C10.7011 7.11291 10.7754 7.1287 10.8498 7.1235C10.9242 7.1183 10.9956 7.09233 11.0559 7.04853C11.1162 7.00474 11.163 6.94489 11.191 6.87579C11.2189 6.8067 11.227 6.73114 11.2141 6.65772L11.1247 6.1474C11.1241 6.14369 11.1244 6.13988 11.1256 6.13631C11.1268 6.13274 11.1288 6.12951 11.1315 6.1269L11.5034 5.76673C11.5569 5.7149 11.5949 5.64908 11.6128 5.57676C11.6308 5.50445 11.6282 5.42853 11.6052 5.35765C11.5822 5.28677 11.5397 5.22376 11.4827 5.1758C11.4257 5.12783 11.3563 5.09683 11.2826 5.08632ZM11.2426 5.4972L10.8706 5.8575C10.8239 5.9027 10.789 5.95864 10.7689 6.02044C10.7488 6.08223 10.7442 6.14801 10.7554 6.21201L10.8446 6.72214C10.8457 6.72643 10.8454 6.73096 10.8437 6.73507C10.8421 6.73918 10.8392 6.74266 10.8354 6.74502C10.8321 6.74789 10.8278 6.7496 10.8234 6.7499C10.819 6.7502 10.8146 6.74906 10.8109 6.74667L10.3535 6.50438C10.2961 6.47383 10.2321 6.45785 10.167 6.45785C10.102 6.45785 10.038 6.47383 9.98059 6.50438L9.52283 6.7468C9.51913 6.74917 9.51476 6.7503 9.51037 6.75C9.50598 6.7497 9.5018 6.748 9.49845 6.74515C9.49471 6.74279 9.4918 6.73931 9.49016 6.7352C9.48851 6.73109 9.48821 6.72656 9.4893 6.72227L9.57848 6.2125C9.58971 6.1484 9.58506 6.08252 9.56495 6.02063C9.54484 5.95874 9.50987 5.90272 9.46311 5.85747L9.09106 5.4973C9.08796 5.49426 9.08578 5.49043 9.08475 5.48622C9.08372 5.48201 9.0839 5.47759 9.08525 5.47347C9.0866 5.46936 9.08908 5.4657 9.0924 5.46292C9.09572 5.46014 9.09976 5.45834 9.10405 5.45773L9.61684 5.385C9.68119 5.37581 9.74231 5.35101 9.79488 5.31277C9.84744 5.27453 9.88986 5.22402 9.91842 5.16563L10.146 4.70053C10.1477 4.69644 10.1506 4.69298 10.1543 4.69064C10.1581 4.6883 10.1625 4.6872 10.1669 4.6875C10.1712 4.68718 10.1756 4.68825 10.1793 4.69056C10.183 4.69286 10.1859 4.69628 10.1875 4.70033L10.4151 5.16523C10.4436 5.22375 10.4861 5.27438 10.5387 5.31269C10.5913 5.35099 10.6525 5.37581 10.717 5.38495L11.2295 5.45764C11.2338 5.45824 11.2379 5.46002 11.2412 5.4628C11.2445 5.46558 11.247 5.46924 11.2484 5.47337C11.2497 5.47749 11.2499 5.48191 11.2488 5.48612C11.2478 5.49034 11.2457 5.49418 11.2426 5.4972Z" fill="black"/>
<path d="M8.0625 4.3125H0.5625C0.512772 4.3125 0.465081 4.33225 0.429917 4.36742C0.394754 4.40258 0.375 4.45027 0.375 4.5V7.5C0.375002 7.53284 0.38363 7.5651 0.40002 7.59356C0.416409 7.62202 0.439986 7.64568 0.46839 7.66216C0.496795 7.67864 0.52903 7.68738 0.561871 7.68749C0.594711 7.6876 0.627004 7.67908 0.655519 7.66279L1.9248 6.9375H8.0625C8.11223 6.9375 8.15992 6.91775 8.19508 6.88258C8.23025 6.84742 8.25 6.79973 8.25 6.75V4.5C8.25 4.45027 8.23025 4.40258 8.19508 4.36742C8.15992 4.33225 8.11223 4.3125 8.0625 4.3125ZM7.875 6.5625H1.875C1.84238 6.56256 1.81033 6.57107 1.78198 6.58721L0.75 7.17683V4.6875H7.875V6.5625Z" fill="black"/>
<path d="M2.4375 5.8125H6.1875C6.23723 5.8125 6.28492 5.79275 6.32008 5.75758C6.35525 5.72242 6.375 5.67473 6.375 5.625C6.375 5.57527 6.35525 5.52758 6.32008 5.49242C6.28492 5.45725 6.23723 5.4375 6.1875 5.4375H2.4375C2.38777 5.4375 2.34008 5.45725 2.30492 5.49242C2.26975 5.52758 2.25 5.57527 2.25 5.625C2.25 5.67473 2.26975 5.72242 2.30492 5.75758C2.34008 5.79275 2.38777 5.8125 2.4375 5.8125Z" fill="black"/>
<path d="M11.2826 9.02382L10.77 8.95112C10.7662 8.95062 10.7626 8.94918 10.7595 8.94695C10.7564 8.94471 10.7539 8.94174 10.7522 8.9383L10.5245 8.47313C10.492 8.40602 10.4412 8.34947 10.378 8.30999C10.3147 8.27051 10.2416 8.24972 10.1671 8.25H10.1669C10.0923 8.24969 10.0191 8.27047 9.95581 8.30995C9.8925 8.34943 9.84165 8.40599 9.8091 8.47313L9.58152 8.93822C9.57985 8.94163 9.57738 8.94458 9.57431 8.94682C9.57125 8.94905 9.56768 8.9505 9.56393 8.95105L9.05123 9.02374C8.97744 9.03422 8.90806 9.0652 8.85101 9.11316C8.79395 9.16111 8.75149 9.22412 8.72846 9.295C8.70544 9.36589 8.70277 9.44182 8.72076 9.51415C8.73875 9.58648 8.77667 9.65232 8.83022 9.70416L9.20211 10.0642C9.2049 10.0668 9.20698 10.0701 9.20817 10.0737C9.20936 10.0774 9.20961 10.0813 9.2089 10.085L9.11972 10.5952C9.10661 10.6686 9.11444 10.7443 9.14232 10.8135C9.17019 10.8827 9.21699 10.9427 9.27736 10.9866C9.33773 11.0304 9.40923 11.0564 9.48367 11.0616C9.55812 11.0667 9.63251 11.0508 9.69833 11.0156L10.1561 10.773C10.1595 10.7713 10.1632 10.7705 10.167 10.7705C10.1708 10.7705 10.1745 10.7715 10.1779 10.7732L10.6353 11.0154C10.7011 11.0504 10.7754 11.0662 10.8498 11.061C10.9242 11.0558 10.9956 11.0298 11.0559 10.986C11.1162 10.9422 11.163 10.8824 11.191 10.8133C11.2189 10.7442 11.227 10.6686 11.2141 10.5952L11.1247 10.0849C11.1241 10.0812 11.1244 10.0774 11.1256 10.0738C11.1268 10.0702 11.1288 10.067 11.1315 10.0644L11.5034 9.70423C11.5569 9.6524 11.5949 9.58658 11.6128 9.51426C11.6308 9.44195 11.6282 9.36603 11.6052 9.29515C11.5822 9.22427 11.5397 9.16126 11.4827 9.1133C11.4257 9.06533 11.3563 9.03433 11.2826 9.02382ZM11.2426 9.4347L10.8706 9.795C10.8239 9.8402 10.789 9.89614 10.7689 9.95794C10.7488 10.0197 10.7442 10.0855 10.7554 10.1495L10.8446 10.6596C10.8457 10.6639 10.8454 10.6685 10.8437 10.6726C10.8421 10.6767 10.8392 10.6802 10.8354 10.6825C10.8321 10.6854 10.8278 10.6871 10.8234 10.6874C10.819 10.6877 10.8146 10.6866 10.8109 10.6842L10.3535 10.4419C10.2961 10.4113 10.2321 10.3954 10.167 10.3954C10.102 10.3954 10.038 10.4113 9.98059 10.4419L9.52283 10.6843C9.51913 10.6867 9.51476 10.6878 9.51037 10.6875C9.50598 10.6872 9.5018 10.6855 9.49845 10.6826C9.49471 10.6803 9.4918 10.6768 9.49016 10.6727C9.48851 10.6686 9.48821 10.6641 9.4893 10.6598L9.57848 10.15C9.58971 10.0859 9.58506 10.02 9.56495 9.95813C9.54484 9.89624 9.50987 9.84022 9.46311 9.79497L9.09106 9.4348C9.08796 9.43176 9.08578 9.42793 9.08475 9.42372C9.08372 9.41951 9.0839 9.41509 9.08525 9.41097C9.0866 9.40686 9.08908 9.4032 9.0924 9.40042C9.09572 9.39764 9.09976 9.39584 9.10405 9.39523L9.61684 9.3225C9.68119 9.31331 9.74231 9.28851 9.79488 9.25027C9.84744 9.21204 9.88986 9.16152 9.91842 9.10313L10.146 8.63813C10.1477 8.63402 10.1506 8.63054 10.1543 8.62818C10.1581 8.62582 10.1625 8.62471 10.1669 8.625C10.1712 8.62468 10.1756 8.62575 10.1793 8.62806C10.183 8.63036 10.1859 8.63378 10.1875 8.63783L10.4151 9.10273C10.4436 9.16125 10.4861 9.21188 10.5387 9.25019C10.5913 9.28849 10.6525 9.31331 10.717 9.32245L11.2295 9.39514C11.2338 9.39573 11.2379 9.39752 11.2412 9.4003C11.2445 9.40308 11.247 9.40674 11.2484 9.41087C11.2497 9.41499 11.2499 9.41941 11.2488 9.42362C11.2478 9.42784 11.2457 9.43168 11.2426 9.4347Z" fill="black"/>
<path d="M8.0625 8.25H0.5625C0.512772 8.25 0.465081 8.26975 0.429917 8.30492C0.394754 8.34008 0.375 8.38777 0.375 8.4375V11.4375C0.375002 11.4703 0.38363 11.5026 0.40002 11.5311C0.416409 11.5595 0.439986 11.5832 0.46839 11.5997C0.496795 11.6161 0.52903 11.6249 0.561871 11.625C0.594711 11.6251 0.627004 11.6166 0.655519 11.6003L1.9248 10.875H8.0625C8.11223 10.875 8.15992 10.8552 8.19508 10.8201C8.23025 10.7849 8.25 10.7372 8.25 10.6875V8.4375C8.25 8.38777 8.23025 8.34008 8.19508 8.30492C8.15992 8.26975 8.11223 8.25 8.0625 8.25ZM7.875 10.5H1.875C1.84238 10.5001 1.81033 10.5086 1.78198 10.5247L0.75 11.1143V8.625H7.875V10.5Z" fill="black"/>
<path d="M2.4375 9.75H6.1875C6.23723 9.75 6.28492 9.73025 6.32008 9.69508C6.35525 9.65992 6.375 9.61223 6.375 9.5625C6.375 9.51277 6.35525 9.46508 6.32008 9.42992C6.28492 9.39475 6.23723 9.375 6.1875 9.375H2.4375C2.38777 9.375 2.34008 9.39475 2.30492 9.42992C2.26975 9.46508 2.25 9.51277 2.25 9.5625C2.25 9.61223 2.26975 9.65992 2.30492 9.69508C2.34008 9.73025 2.38777 9.75 2.4375 9.75Z" fill="black"/>
</g>
<defs>
<clipPath id="clip0_618_5610">
<rect width="12" height="12" fill="white"/>
</clipPath>
</defs>
</svg>
