<svg width="12" height="12" viewBox="0 0 12 12" fill="none" xmlns="http://www.w3.org/2000/svg">
<path fill-rule="evenodd" clip-rule="evenodd" d="M6 0.625C6.05415 0.624966 6.10766 0.636657 6.15685 0.659271C6.20605 0.681884 6.24977 0.714884 6.285 0.756L7.785 2.506C7.84971 2.58159 7.88175 2.67978 7.87406 2.77899C7.86637 2.8782 7.81959 2.97029 7.744 3.035C7.66841 3.09971 7.57022 3.13175 7.47101 3.12406C7.3718 3.11637 7.27971 3.06959 7.215 2.994L6.375 2.014V7.5C6.375 7.59946 6.33549 7.69484 6.26516 7.76516C6.19484 7.83549 6.09946 7.875 6 7.875C5.90054 7.875 5.80516 7.83549 5.73484 7.76516C5.66451 7.69484 5.625 7.59946 5.625 7.5V2.0135L4.785 2.994C4.75296 3.03143 4.71386 3.06218 4.66993 3.08449C4.626 3.10681 4.57811 3.12025 4.52899 3.12406C4.47987 3.12787 4.43048 3.12196 4.38364 3.10668C4.3368 3.0914 4.29343 3.06704 4.256 3.035C4.21857 3.00296 4.18782 2.96386 4.16551 2.91993C4.14319 2.876 4.12975 2.82811 4.12594 2.77899C4.12213 2.72987 4.12804 2.68048 4.14332 2.63364C4.1586 2.5868 4.18296 2.54343 4.215 2.506L5.715 0.756C5.75023 0.714884 5.79395 0.681884 5.84315 0.659271C5.89234 0.636657 5.94585 0.624966 6 0.625ZM3.498 4.126C3.59746 4.12547 3.69305 4.16447 3.76375 4.23442C3.83445 4.30437 3.87447 4.39954 3.875 4.499C3.87553 4.59846 3.83653 4.69405 3.76658 4.76475C3.69663 4.83545 3.60146 4.87547 3.502 4.876C2.9555 4.879 2.568 4.893 2.2735 4.947C1.9905 4.9995 1.826 5.083 1.7045 5.2045C1.566 5.343 1.476 5.5375 1.4265 5.9045C1.376 6.282 1.375 6.7825 1.375 7.5V8C1.375 8.718 1.376 9.2185 1.4265 9.596C1.476 9.963 1.5665 10.157 1.7045 10.296C1.843 10.434 2.037 10.524 2.4045 10.5735C2.7815 10.6245 3.2825 10.625 4 10.625H8C8.7175 10.625 9.218 10.6245 9.596 10.5735C9.963 10.524 10.157 10.434 10.2955 10.2955C10.434 10.157 10.524 9.963 10.5735 9.596C10.624 9.2185 10.625 8.718 10.625 8V7.5C10.625 6.7825 10.624 6.282 10.5735 5.904C10.524 5.5375 10.4335 5.343 10.2955 5.2045C10.1735 5.083 10.0095 4.9995 9.7265 4.947C9.432 4.893 9.0445 4.879 8.498 4.876C8.44875 4.87574 8.40004 4.86578 8.35465 4.84669C8.30925 4.8276 8.26806 4.79976 8.23342 4.76475C8.19878 4.72974 8.17138 4.68826 8.15278 4.64266C8.13418 4.59706 8.12474 4.54825 8.125 4.499C8.12526 4.44975 8.13522 4.40104 8.15431 4.35565C8.1734 4.31025 8.20124 4.26906 8.23625 4.23442C8.27126 4.19978 8.31274 4.17238 8.35834 4.15378C8.40394 4.13518 8.45275 4.12574 8.502 4.126C9.043 4.129 9.4935 4.142 9.862 4.2095C10.241 4.2795 10.5635 4.412 10.826 4.6745C11.127 4.975 11.256 5.3545 11.317 5.8045C11.375 6.2375 11.375 6.789 11.375 7.4725V8.0275C11.375 8.7115 11.375 9.2625 11.317 9.696C11.256 10.146 11.127 10.525 10.826 10.826C10.525 11.127 10.146 11.256 9.696 11.317C9.2625 11.375 8.711 11.375 8.0275 11.375H3.9725C3.289 11.375 2.7375 11.375 2.304 11.317C1.854 11.2565 1.475 11.127 1.174 10.826C0.873 10.525 0.744 10.146 0.6835 9.696C0.625 9.2625 0.625 8.711 0.625 8.0275V7.4725C0.625 6.789 0.625 6.2375 0.6835 5.804C0.7435 5.354 0.8735 4.975 1.174 4.674C1.4365 4.412 1.759 4.279 2.138 4.2095C2.5065 4.142 2.957 4.129 3.498 4.126Z" fill="#1E1E1E"/>
</svg>
