<svg width="20" height="20" viewBox="0 0 20 20" fill="none" xmlns="http://www.w3.org/2000/svg">
<path d="M17.5117 16.5898L13.0859 12.1602C13.8984 11.1445 14.3867 9.85156 14.3867 8.44531C14.3867 5.16016 11.7266 2.5 8.44922 2.5C5.16797 2.5 2.51172 5.16406 2.51172 8.44531C2.51172 11.7266 5.17188 14.3906 8.44922 14.3906C9.86328 14.3906 11.1602 13.8945 12.1797 13.0703L16.6016 17.5L17.5117 16.5898ZM4.69141 12.2109C3.6875 11.207 3.13672 9.87109 3.13672 8.44922C3.13672 7.02734 3.69141 5.69141 4.69141 4.6875C5.69141 3.68359 7.03125 3.125 8.44922 3.125C9.86719 3.125 11.2031 3.67969 12.207 4.68359C13.2109 5.6875 13.7617 7.02344 13.7617 8.44531C13.7617 9.86719 13.207 11.2031 12.207 12.207C11.2031 13.2109 9.86719 13.7656 8.44922 13.7656C7.03125 13.7695 5.69531 13.2148 4.69141 12.2109Z" fill="#7D7D7D"/>
</svg>
