<svg width="20" height="20" viewBox="0 0 20 20" fill="none" xmlns="http://www.w3.org/2000/svg">
<mask id="path-1-inside-1_618_617" fill="white">
<path d="M15.8521 15.8685H6.6319C6.41619 15.8685 6.24127 15.6936 6.24127 15.4779V2.34009C6.24127 2.12438 6.41619 1.94946 6.6319 1.94946H15.8521C16.0678 1.94946 16.2427 2.12438 16.2427 2.34009V15.4779C16.2427 15.6936 16.0678 15.8685 15.8521 15.8685ZM7.02252 15.0872H15.4615V2.73071H7.02252V15.0872Z"/>
</mask>
<path d="M15.8521 15.8685H6.6319C6.41619 15.8685 6.24127 15.6936 6.24127 15.4779V2.34009C6.24127 2.12438 6.41619 1.94946 6.6319 1.94946H15.8521C16.0678 1.94946 16.2427 2.12438 16.2427 2.34009V15.4779C16.2427 15.6936 16.0678 15.8685 15.8521 15.8685ZM7.02252 15.0872H15.4615V2.73071H7.02252V15.0872Z" fill="#1958F7"/>
<path d="M16.2427 15.4779H15.2427H16.2427ZM7.02252 15.0872H6.02252V16.0872H7.02252V15.0872ZM15.4615 15.0872V16.0872H16.4615V15.0872H15.4615ZM15.4615 2.73071H16.4615V1.73071H15.4615V2.73071ZM7.02252 2.73071V1.73071H6.02252V2.73071H7.02252ZM15.8521 15.8685V14.8685H6.6319V15.8685V16.8685H15.8521V15.8685ZM6.6319 15.8685V14.8685C6.96848 14.8685 7.24127 15.1413 7.24127 15.4779H6.24127H5.24127C5.24127 16.2458 5.86391 16.8685 6.6319 16.8685V15.8685ZM6.24127 15.4779H7.24127V2.34009H6.24127H5.24127V15.4779H6.24127ZM6.24127 2.34009H7.24127C7.24127 2.67667 6.96848 2.94946 6.6319 2.94946V1.94946V0.949463C5.86391 0.949463 5.24127 1.5721 5.24127 2.34009H6.24127ZM6.6319 1.94946V2.94946H15.8521V1.94946V0.949463H6.6319V1.94946ZM15.8521 1.94946V2.94946C15.5155 2.94946 15.2427 2.67667 15.2427 2.34009H16.2427H17.2427C17.2427 1.5721 16.6201 0.949463 15.8521 0.949463V1.94946ZM16.2427 2.34009H15.2427V15.4779H16.2427H17.2427V2.34009H16.2427ZM16.2427 15.4779H15.2427C15.2427 15.1413 15.5155 14.8685 15.8521 14.8685V15.8685V16.8685C16.6201 16.8685 17.2427 16.2459 17.2427 15.4779H16.2427ZM7.02252 15.0872V16.0872H15.4615V15.0872V14.0872H7.02252V15.0872ZM15.4615 15.0872H16.4615V2.73071H15.4615H14.4615V15.0872H15.4615ZM15.4615 2.73071V1.73071H7.02252V2.73071V3.73071H15.4615V2.73071ZM7.02252 2.73071H6.02252V15.0872H7.02252H8.02252V2.73071H7.02252Z" fill="#1958F7" mask="url(#path-1-inside-1_618_617)"/>
<path d="M8.56057 6.15537C8.44886 6.15537 8.33807 6.10768 8.26093 6.01561L7.75014 5.40592C7.61159 5.24057 7.63335 4.99416 7.7987 4.85564C7.96405 4.71701 8.21042 4.73881 8.34897 4.9042L8.61452 5.22115L9.88163 4.20744C10.0501 4.07264 10.2959 4.10002 10.4307 4.26846C10.5655 4.43693 10.5382 4.68272 10.3697 4.81752L8.80436 6.06982C8.73245 6.12732 8.64624 6.15537 8.56057 6.15537Z" fill="#1958F7"/>
<path d="M14.8615 5.5293H11.0724C10.8567 5.5293 10.6818 5.35438 10.6818 5.13867C10.6818 4.92297 10.8567 4.74805 11.0724 4.74805H14.8615C15.0772 4.74805 15.2521 4.92297 15.2521 5.13867C15.2521 5.35438 15.0773 5.5293 14.8615 5.5293Z" fill="#1958F7"/>
<path d="M12.7912 6.74756H10.9748C10.7591 6.74756 10.5842 6.57264 10.5842 6.35693C10.5842 6.14123 10.7591 5.96631 10.9748 5.96631H12.7912C13.0069 5.96631 13.1818 6.14123 13.1818 6.35693C13.1818 6.57264 13.0069 6.74756 12.7912 6.74756Z" fill="#1958F7"/>
<path d="M14.8615 8.78809H11.0724C10.8567 8.78809 10.6818 8.61316 10.6818 8.39746C10.6818 8.18176 10.8567 8.00684 11.0724 8.00684H14.8615C15.0772 8.00684 15.2521 8.18176 15.2521 8.39746C15.2521 8.61316 15.0773 8.78809 14.8615 8.78809Z" fill="#1958F7"/>
<path d="M12.7912 10.0063H10.9748C10.7591 10.0063 10.5842 9.83143 10.5842 9.61572C10.5842 9.40002 10.7591 9.2251 10.9748 9.2251H12.7912C13.0069 9.2251 13.1818 9.40002 13.1818 9.61572C13.1818 9.83143 13.0069 10.0063 12.7912 10.0063Z" fill="#1958F7"/>
<path d="M14.8615 12.502H11.0724C10.8567 12.502 10.6818 12.327 10.6818 12.1113C10.6818 11.8956 10.8567 11.7207 11.0724 11.7207H14.8615C15.0772 11.7207 15.2521 11.8956 15.2521 12.1113C15.2521 12.327 15.0773 12.502 14.8615 12.502Z" fill="#1958F7"/>
<path d="M12.7912 13.7202H10.9748C10.7591 13.7202 10.5842 13.5453 10.5842 13.3296C10.5842 13.1139 10.7591 12.939 10.9748 12.939H12.7912C13.0069 12.939 13.1818 13.1139 13.1818 13.3296C13.1818 13.5453 13.0069 13.7202 12.7912 13.7202Z" fill="#1958F7"/>
<path d="M9.50605 10.1363H7.93835C7.72265 10.1363 7.54773 9.96141 7.54773 9.7457V8.26758C7.54773 8.05188 7.72265 7.87695 7.93835 7.87695H9.50605C9.72175 7.87695 9.89668 8.05188 9.89668 8.26758V9.7457C9.89668 9.96145 9.72179 10.1363 9.50605 10.1363ZM8.32902 9.35508H9.11546V8.6582H8.32902V9.35508Z" fill="#1958F7"/>
<path d="M9.50605 14.1109H7.93835C7.72265 14.1109 7.54773 13.936 7.54773 13.7203V12.2422C7.54773 12.0265 7.72265 11.8516 7.93835 11.8516H9.50605C9.72175 11.8516 9.89668 12.0265 9.89668 12.2422V13.7203C9.89668 13.9361 9.72179 14.1109 9.50605 14.1109ZM8.32902 13.3297H9.11546V12.6328H8.32902V13.3297Z" fill="#1958F7"/>
</svg>
