<svg width="142" height="40" viewBox="0 0 142 40" fill="none" xmlns="http://www.w3.org/2000/svg">
<rect x="0.5" y="0.5" width="141" height="39" rx="14.5" stroke="#F0F0F0"/>
<g clip-path="url(#clip0_44077_8140)">
<path d="M20.4425 21.6018L22.496 25.7339L27.744 14.2495L16.261 19.7607L20.4425 21.6018ZM20.5645 21.154L17.359 19.7427L26.1624 15.5177L20.5645 21.154ZM22.4789 24.6729L20.8902 21.4757L26.5379 15.7896L22.4789 24.6729Z" fill="#1E1E1E"/>
</g>
<path d="M44.172 24.598C43.528 24.598 42.9493 24.486 42.436 24.262C41.932 24.0287 41.5353 23.7113 41.246 23.31C40.9567 22.8993 40.8073 22.428 40.798 21.896H42.156C42.2027 22.3533 42.3893 22.7407 42.716 23.058C43.052 23.366 43.5373 23.52 44.172 23.52C44.7787 23.52 45.2547 23.3707 45.6 23.072C45.9547 22.764 46.132 22.372 46.132 21.896C46.132 21.5227 46.0293 21.2193 45.824 20.986C45.6187 20.7527 45.362 20.5753 45.054 20.454C44.746 20.3327 44.3307 20.202 43.808 20.062C43.164 19.894 42.646 19.726 42.254 19.558C41.8713 19.39 41.54 19.1287 41.26 18.774C40.9893 18.41 40.854 17.9247 40.854 17.318C40.854 16.786 40.9893 16.3147 41.26 15.904C41.5307 15.4933 41.9087 15.176 42.394 14.952C42.8887 14.728 43.4533 14.616 44.088 14.616C45.0027 14.616 45.7493 14.8447 46.328 15.302C46.916 15.7593 47.2473 16.366 47.322 17.122H45.922C45.8753 16.7487 45.6793 16.422 45.334 16.142C44.9887 15.8527 44.5313 15.708 43.962 15.708C43.43 15.708 42.996 15.848 42.66 16.128C42.324 16.3987 42.156 16.7813 42.156 17.276C42.156 17.6307 42.254 17.92 42.45 18.144C42.6553 18.368 42.9027 18.5407 43.192 18.662C43.4907 18.774 43.906 18.9047 44.438 19.054C45.082 19.2313 45.6 19.4087 45.992 19.586C46.384 19.754 46.72 20.02 47 20.384C47.28 20.7387 47.42 21.224 47.42 21.84C47.42 22.316 47.294 22.764 47.042 23.184C46.79 23.604 46.4167 23.9447 45.922 24.206C45.4273 24.4673 44.844 24.598 44.172 24.598ZM56.2948 20.37C56.2948 20.6127 56.2808 20.8693 56.2528 21.14H50.1208C50.1675 21.896 50.4241 22.4887 50.8908 22.918C51.3668 23.338 51.9408 23.548 52.6128 23.548C53.1635 23.548 53.6208 23.422 53.9848 23.17C54.3581 22.9087 54.6195 22.5633 54.7688 22.134H56.1408C55.9355 22.8713 55.5248 23.4733 54.9088 23.94C54.2928 24.3973 53.5275 24.626 52.6128 24.626C51.8848 24.626 51.2315 24.4627 50.6528 24.136C50.0835 23.8093 49.6355 23.3473 49.3088 22.75C48.9821 22.1433 48.8188 21.4433 48.8188 20.65C48.8188 19.8567 48.9775 19.1613 49.2948 18.564C49.6121 17.9667 50.0555 17.5093 50.6248 17.192C51.2035 16.8653 51.8661 16.702 52.6128 16.702C53.3408 16.702 53.9848 16.8607 54.5448 17.178C55.1048 17.4953 55.5341 17.934 55.8328 18.494C56.1408 19.0447 56.2948 19.67 56.2948 20.37ZM54.9788 20.104C54.9788 19.6187 54.8715 19.2033 54.6568 18.858C54.4421 18.5033 54.1481 18.2373 53.7748 18.06C53.4108 17.8733 53.0048 17.78 52.5568 17.78C51.9128 17.78 51.3621 17.9853 50.9048 18.396C50.4568 18.8067 50.2001 19.376 50.1348 20.104H54.9788ZM61.7144 16.688C62.6478 16.688 63.4038 16.9727 63.9824 17.542C64.5611 18.102 64.8504 18.914 64.8504 19.978V24.5H63.5904V20.16C63.5904 19.3947 63.3991 18.8113 63.0164 18.41C62.6338 17.9993 62.1111 17.794 61.4484 17.794C60.7764 17.794 60.2398 18.004 59.8384 18.424C59.4464 18.844 59.2504 19.4553 59.2504 20.258V24.5H57.9764V16.828H59.2504V17.92C59.5024 17.528 59.8431 17.2247 60.2724 17.01C60.7111 16.7953 61.1918 16.688 61.7144 16.688ZM66.4555 20.636C66.4555 19.852 66.6142 19.166 66.9315 18.578C67.2488 17.9807 67.6828 17.5187 68.2335 17.192C68.7935 16.8653 69.4188 16.702 70.1095 16.702C70.7068 16.702 71.2622 16.842 71.7755 17.122C72.2888 17.3927 72.6808 17.752 72.9515 18.2V14.14H74.2395V24.5H72.9515V23.058C72.6995 23.5153 72.3262 23.8933 71.8315 24.192C71.3368 24.4813 70.7582 24.626 70.0955 24.626C69.4142 24.626 68.7935 24.458 68.2335 24.122C67.6828 23.786 67.2488 23.3147 66.9315 22.708C66.6142 22.1013 66.4555 21.4107 66.4555 20.636ZM72.9515 20.65C72.9515 20.0713 72.8348 19.5673 72.6015 19.138C72.3682 18.7087 72.0508 18.382 71.6495 18.158C71.2575 17.9247 70.8235 17.808 70.3475 17.808C69.8715 17.808 69.4375 17.92 69.0455 18.144C68.6535 18.368 68.3408 18.6947 68.1075 19.124C67.8742 19.5533 67.7575 20.0573 67.7575 20.636C67.7575 21.224 67.8742 21.7373 68.1075 22.176C68.3408 22.6053 68.6535 22.9367 69.0455 23.17C69.4375 23.394 69.8715 23.506 70.3475 23.506C70.8235 23.506 71.2575 23.394 71.6495 23.17C72.0508 22.9367 72.3682 22.6053 72.6015 22.176C72.8348 21.7373 72.9515 21.2287 72.9515 20.65ZM83.2189 24.598C82.5749 24.598 81.9962 24.486 81.4829 24.262C80.9789 24.0287 80.5822 23.7113 80.2929 23.31C80.0035 22.8993 79.8542 22.428 79.8449 21.896H81.2029C81.2495 22.3533 81.4362 22.7407 81.7629 23.058C82.0989 23.366 82.5842 23.52 83.2189 23.52C83.8255 23.52 84.3015 23.3707 84.6469 23.072C85.0015 22.764 85.1789 22.372 85.1789 21.896C85.1789 21.5227 85.0762 21.2193 84.8709 20.986C84.6655 20.7527 84.4089 20.5753 84.1009 20.454C83.7929 20.3327 83.3775 20.202 82.8549 20.062C82.2109 19.894 81.6929 19.726 81.3009 19.558C80.9182 19.39 80.5869 19.1287 80.3069 18.774C80.0362 18.41 79.9009 17.9247 79.9009 17.318C79.9009 16.786 80.0362 16.3147 80.3069 15.904C80.5775 15.4933 80.9555 15.176 81.4409 14.952C81.9355 14.728 82.5002 14.616 83.1349 14.616C84.0495 14.616 84.7962 14.8447 85.3749 15.302C85.9629 15.7593 86.2942 16.366 86.3689 17.122H84.9689C84.9222 16.7487 84.7262 16.422 84.3809 16.142C84.0355 15.8527 83.5782 15.708 83.0089 15.708C82.4769 15.708 82.0429 15.848 81.7069 16.128C81.3709 16.3987 81.2029 16.7813 81.2029 17.276C81.2029 17.6307 81.3009 17.92 81.4969 18.144C81.7022 18.368 81.9495 18.5407 82.2389 18.662C82.5375 18.774 82.9529 18.9047 83.4849 19.054C84.1289 19.2313 84.6469 19.4087 85.0389 19.586C85.4309 19.754 85.7669 20.02 86.0469 20.384C86.3269 20.7387 86.4669 21.224 86.4669 21.84C86.4669 22.316 86.3409 22.764 86.0889 23.184C85.8369 23.604 85.4635 23.9447 84.9689 24.206C84.4742 24.4673 83.8909 24.598 83.2189 24.598ZM95.1457 16.828V24.5H93.8717V23.366C93.629 23.758 93.2883 24.066 92.8497 24.29C92.4203 24.5047 91.9443 24.612 91.4217 24.612C90.8243 24.612 90.2877 24.4907 89.8117 24.248C89.3357 23.996 88.9577 23.6227 88.6777 23.128C88.407 22.6333 88.2717 22.0313 88.2717 21.322V16.828H89.5317V21.154C89.5317 21.91 89.723 22.4933 90.1057 22.904C90.4883 23.3053 91.011 23.506 91.6737 23.506C92.355 23.506 92.8917 23.296 93.2837 22.876C93.6757 22.456 93.8717 21.8447 93.8717 21.042V16.828H95.1457ZM98.5708 18.074C98.7948 17.6353 99.1121 17.2947 99.5228 17.052C99.9428 16.8093 100.451 16.688 101.049 16.688V18.004H100.713C99.2848 18.004 98.5708 18.7787 98.5708 20.328V24.5H97.2968V16.828H98.5708V18.074ZM105.375 23.324L107.755 16.828H109.113L106.103 24.5H104.619L101.609 16.828H102.981L105.375 23.324ZM117.367 20.37C117.367 20.6127 117.353 20.8693 117.325 21.14H111.193C111.24 21.896 111.496 22.4887 111.963 22.918C112.439 23.338 113.013 23.548 113.685 23.548C114.236 23.548 114.693 23.422 115.057 23.17C115.43 22.9087 115.692 22.5633 115.841 22.134H117.213C117.008 22.8713 116.597 23.4733 115.981 23.94C115.365 24.3973 114.6 24.626 113.685 24.626C112.957 24.626 112.304 24.4627 111.725 24.136C111.156 23.8093 110.708 23.3473 110.381 22.75C110.054 22.1433 109.891 21.4433 109.891 20.65C109.891 19.8567 110.05 19.1613 110.367 18.564C110.684 17.9667 111.128 17.5093 111.697 17.192C112.276 16.8653 112.938 16.702 113.685 16.702C114.413 16.702 115.057 16.8607 115.617 17.178C116.177 17.4953 116.606 17.934 116.905 18.494C117.213 19.0447 117.367 19.67 117.367 20.37ZM116.051 20.104C116.051 19.6187 115.944 19.2033 115.729 18.858C115.514 18.5033 115.22 18.2373 114.847 18.06C114.483 17.8733 114.077 17.78 113.629 17.78C112.985 17.78 112.434 17.9853 111.977 18.396C111.529 18.8067 111.272 19.376 111.207 20.104H116.051ZM125.657 16.828L121.037 28.112H119.721L121.233 24.416L118.139 16.828H119.553L121.961 23.044L124.341 16.828H125.657Z" fill="#1E1E1E"/>
<defs>
<clipPath id="clip0_44077_8140">
<rect width="12" height="12" fill="white" transform="translate(16 14)"/>
</clipPath>
</defs>
</svg>
