<svg width="12" height="12" viewBox="0 0 12 12" fill="none" xmlns="http://www.w3.org/2000/svg">
<g clip-path="url(#clip0_43749_6407)">
<path d="M3.99627 9.60719H3.55357C3.48203 9.60709 3.41346 9.57863 3.36288 9.52804C3.31229 9.47746 3.28383 9.40889 3.28373 9.33735V7.78137C3.28374 7.70211 3.26025 7.62462 3.21622 7.55871C3.17219 7.49281 3.10961 7.44144 3.03638 7.41111C2.96315 7.38078 2.88257 7.37285 2.80483 7.38833C2.7271 7.4038 2.6557 7.44198 2.59967 7.49805L1.65447 8.44324C1.61726 8.48045 1.58775 8.52462 1.56761 8.57323C1.54747 8.62185 1.53711 8.67395 1.53711 8.72657C1.53711 8.77919 1.54747 8.83129 1.56761 8.8799C1.58775 8.92851 1.61726 8.97268 1.65447 9.00989C1.72961 9.08503 1.83152 9.12725 1.93779 9.12725C1.99041 9.12725 2.04251 9.11688 2.09112 9.09675C2.13974 9.07661 2.18391 9.0471 2.22111 9.00989L2.48226 8.74897V9.33735C2.48256 9.62139 2.59553 9.89371 2.79637 10.0946C2.99722 10.2954 3.26953 10.4084 3.55357 10.4087H3.99627C4.10255 10.4087 4.20448 10.3664 4.27963 10.2913C4.35479 10.2161 4.39701 10.1142 4.39701 10.0079C4.39701 9.90165 4.35479 9.79972 4.27963 9.72457C4.20448 9.64941 4.10255 9.60719 3.99627 9.60719Z" fill="black"/>
<path d="M8.00425 2.39303H8.44783C8.51914 2.39311 8.5875 2.42148 8.63792 2.4719C8.68835 2.52232 8.71671 2.59069 8.7168 2.662V4.21885C8.71679 4.29811 8.74028 4.37559 8.78431 4.4415C8.82834 4.5074 8.89093 4.55876 8.96415 4.58909C9.03738 4.61942 9.11796 4.62735 9.19569 4.61188C9.27342 4.59641 9.34482 4.55823 9.40086 4.50217L10.3461 3.55698C10.3833 3.51977 10.4128 3.4756 10.4329 3.42699C10.4531 3.37837 10.4634 3.32627 10.4634 3.27365C10.4634 3.22103 10.4531 3.16893 10.4329 3.12032C10.4128 3.07171 10.3833 3.02754 10.3461 2.99033C10.3089 2.95312 10.2647 2.92361 10.2161 2.90347C10.1675 2.88334 10.1154 2.87297 10.0627 2.87297C10.0101 2.87297 9.95801 2.88334 9.9094 2.90347C9.86079 2.92361 9.81662 2.95312 9.77941 2.99033L9.51827 3.25125V2.662C9.51798 2.37819 9.40511 2.10608 9.20442 1.9054C9.00374 1.70471 8.73163 1.59184 8.44782 1.59155H8.00425C7.89797 1.59155 7.79604 1.63377 7.72089 1.70893C7.64574 1.78408 7.60352 1.88601 7.60352 1.99229C7.60352 2.09857 7.64574 2.2005 7.72089 2.27565C7.79604 2.35081 7.89797 2.39303 8.00425 2.39303Z" fill="black"/>
<path d="M8.00582 8.38995C8.13721 8.2534 8.26095 8.10969 8.37647 7.95947H7.63477C7.75056 8.10959 7.87442 8.25329 8.00582 8.38995Z" fill="black"/>
<path d="M10.6761 5.15405H7.06905V1.10166C7.06906 1.04904 7.05869 0.996925 7.03856 0.948303C7.01842 0.899682 6.9889 0.855503 6.95169 0.81829C6.91448 0.781077 6.8703 0.751559 6.82168 0.731422C6.77305 0.711285 6.72094 0.700923 6.66831 0.700928H1.32456C1.27194 0.700923 1.21983 0.711285 1.1712 0.731422C1.12258 0.751559 1.0784 0.781077 1.04119 0.81829C1.00398 0.855503 0.974459 0.899682 0.954322 0.948303C0.934185 0.996925 0.923823 1.04904 0.923828 1.10166V6.44541C0.923823 6.49804 0.934185 6.55015 0.954322 6.59877C0.974459 6.6474 1.00398 6.69158 1.04119 6.72879C1.0784 6.766 1.12258 6.79552 1.1712 6.81566C1.21983 6.83579 1.27194 6.84616 1.32456 6.84615H4.93164V10.8985C4.93164 10.9512 4.942 11.0033 4.96213 11.0519C4.98227 11.1005 5.01179 11.1447 5.049 11.1819C5.08622 11.2191 5.13039 11.2486 5.17902 11.2688C5.22764 11.2889 5.27975 11.2993 5.33238 11.2993H10.6761C10.7288 11.2993 10.7809 11.2889 10.8295 11.2688C10.8781 11.2486 10.9223 11.2191 10.9595 11.1819C10.9967 11.1447 11.0262 11.1005 11.0464 11.0519C11.0665 11.0033 11.0769 10.9512 11.0769 10.8985V5.55479C11.0769 5.50216 11.0665 5.45005 11.0464 5.40143C11.0262 5.35281 10.9967 5.30863 10.9595 5.27141C10.9223 5.2342 10.8781 5.20468 10.8295 5.18455C10.7809 5.16441 10.7288 5.15405 10.6761 5.15405ZM5.46827 4.70765L4.35499 2.48109C4.21888 2.20929 3.774 2.20929 3.63789 2.48109L2.5246 4.70765C2.47709 4.80275 2.46929 4.91282 2.50293 5.01367C2.53657 5.11451 2.6089 5.19786 2.70399 5.24537C2.79908 5.29289 2.90916 5.30069 3.01 5.26705C3.11085 5.23341 3.19419 5.16108 3.24171 5.06599L3.35356 4.84224H4.63933L4.75118 5.06599C4.77964 5.12212 4.82105 5.17069 4.87198 5.20767C4.92291 5.24465 4.9819 5.269 5.04409 5.2787C4.97226 5.35269 4.93195 5.45167 4.93164 5.55479V6.04468H1.7253V1.5024H6.26758V5.15405H5.40582C5.46001 5.09461 5.49498 5.02018 5.50612 4.94052C5.51727 4.86086 5.50408 4.77968 5.46827 4.70765ZM4.23864 4.04077H3.75424L3.99644 3.55632L4.23864 4.04077ZM9.56285 7.95943H9.34976C9.13696 8.30436 8.88881 8.62618 8.60933 8.91969C8.87979 9.12107 9.17505 9.28679 9.48783 9.41279C9.53689 9.43207 9.58166 9.46084 9.61958 9.49746C9.6575 9.53408 9.68782 9.57782 9.70881 9.62617C9.72979 9.67453 9.74103 9.72655 9.74188 9.77926C9.74272 9.83196 9.73316 9.88432 9.71373 9.93332C9.69431 9.98233 9.66541 10.027 9.62868 10.0648C9.59196 10.1026 9.54813 10.1328 9.49971 10.1537C9.4513 10.1745 9.39924 10.1856 9.34653 10.1863C9.29383 10.187 9.2415 10.1773 9.19255 10.1577C8.76558 9.98653 8.36539 9.75492 8.00425 9.46997C7.64311 9.75492 7.24293 9.98653 6.81595 10.1577C6.76908 10.1765 6.71904 10.1862 6.66853 10.1862C6.57528 10.1862 6.48494 10.1537 6.41308 10.0943C6.34122 10.0348 6.29232 9.95222 6.27481 9.86063C6.2573 9.76903 6.27227 9.6742 6.31715 9.59246C6.36202 9.51071 6.434 9.44717 6.52067 9.41278C6.83359 9.28689 7.12909 9.12145 7.39997 8.9205C7.12017 8.62676 6.87176 8.30466 6.65875 7.95942H6.44566C6.33938 7.95942 6.23745 7.9172 6.16229 7.84205C6.08714 7.76689 6.04492 7.66497 6.04492 7.55868C6.04492 7.4524 6.08714 7.35047 6.16229 7.27532C6.23745 7.20017 6.33938 7.15795 6.44566 7.15795H7.60352V6.66807C7.60352 6.56179 7.64574 6.45986 7.72089 6.38471C7.79604 6.30955 7.89797 6.26733 8.00425 6.26733C8.11053 6.26733 8.21246 6.30955 8.28762 6.38471C8.36277 6.45986 8.40499 6.56179 8.40499 6.66807V7.15796H9.56285C9.66913 7.15796 9.77106 7.20018 9.84621 7.27533C9.92136 7.35048 9.96358 7.45241 9.96358 7.5587C9.96358 7.66498 9.92136 7.76691 9.84621 7.84206C9.77106 7.91721 9.66913 7.95943 9.56285 7.95943Z" fill="black"/>
</g>
<defs>
<clipPath id="clip0_43749_6407">
<rect width="12" height="12" fill="white"/>
</clipPath>
</defs>
</svg>
