<svg width="20" height="20" viewBox="0 0 20 20" fill="none" xmlns="http://www.w3.org/2000/svg">
<mask id="path-1-inside-1_582_2966" fill="white">
<path d="M15.8522 15.8685H6.63196C6.41625 15.8685 6.24133 15.6936 6.24133 15.4779V2.34009C6.24133 2.12438 6.41625 1.94946 6.63196 1.94946H15.8522C16.0679 1.94946 16.2428 2.12438 16.2428 2.34009V15.4779C16.2428 15.6936 16.0679 15.8685 15.8522 15.8685ZM7.02258 15.0872H15.4615V2.73071H7.02258V15.0872Z"/>
</mask>
<path d="M15.8522 15.8685H6.63196C6.41625 15.8685 6.24133 15.6936 6.24133 15.4779V2.34009C6.24133 2.12438 6.41625 1.94946 6.63196 1.94946H15.8522C16.0679 1.94946 16.2428 2.12438 16.2428 2.34009V15.4779C16.2428 15.6936 16.0679 15.8685 15.8522 15.8685ZM7.02258 15.0872H15.4615V2.73071H7.02258V15.0872Z" fill="#7D7D7D"/>
<path d="M16.2428 15.4779H15.2428H16.2428ZM7.02258 15.0872H6.02258V16.0872H7.02258V15.0872ZM15.4615 15.0872V16.0872H16.4615V15.0872H15.4615ZM15.4615 2.73071H16.4615V1.73071H15.4615V2.73071ZM7.02258 2.73071V1.73071H6.02258V2.73071H7.02258ZM15.8522 15.8685V14.8685H6.63196V15.8685V16.8685H15.8522V15.8685ZM6.63196 15.8685V14.8685C6.96854 14.8685 7.24133 15.1413 7.24133 15.4779H6.24133H5.24133C5.24133 16.2458 5.86397 16.8685 6.63196 16.8685V15.8685ZM6.24133 15.4779H7.24133V2.34009H6.24133H5.24133V15.4779H6.24133ZM6.24133 2.34009H7.24133C7.24133 2.67667 6.96854 2.94946 6.63196 2.94946V1.94946V0.949463C5.86397 0.949463 5.24133 1.5721 5.24133 2.34009H6.24133ZM6.63196 1.94946V2.94946H15.8522V1.94946V0.949463H6.63196V1.94946ZM15.8522 1.94946V2.94946C15.5156 2.94946 15.2428 2.67667 15.2428 2.34009H16.2428H17.2428C17.2428 1.5721 16.6201 0.949463 15.8522 0.949463V1.94946ZM16.2428 2.34009H15.2428V15.4779H16.2428H17.2428V2.34009H16.2428ZM16.2428 15.4779H15.2428C15.2428 15.1413 15.5156 14.8685 15.8522 14.8685V15.8685V16.8685C16.6202 16.8685 17.2428 16.2459 17.2428 15.4779H16.2428ZM7.02258 15.0872V16.0872H15.4615V15.0872V14.0872H7.02258V15.0872ZM15.4615 15.0872H16.4615V2.73071H15.4615H14.4615V15.0872H15.4615ZM15.4615 2.73071V1.73071H7.02258V2.73071V3.73071H15.4615V2.73071ZM7.02258 2.73071H6.02258V15.0872H7.02258H8.02258V2.73071H7.02258Z" fill="#7D7D7D" mask="url(#path-1-inside-1_582_2966)"/>
<path d="M8.56057 6.15537C8.44886 6.15537 8.33807 6.10768 8.26093 6.01561L7.75014 5.40592C7.61159 5.24057 7.63335 4.99416 7.7987 4.85564C7.96405 4.71701 8.21042 4.73881 8.34897 4.9042L8.61452 5.22115L9.88163 4.20744C10.0501 4.07264 10.2959 4.10002 10.4307 4.26846C10.5655 4.43693 10.5382 4.68272 10.3697 4.81752L8.80436 6.06982C8.73245 6.12732 8.64624 6.15537 8.56057 6.15537Z" fill="#7D7D7D"/>
<path d="M14.8616 5.5293H11.0725C10.8568 5.5293 10.6819 5.35438 10.6819 5.13867C10.6819 4.92297 10.8568 4.74805 11.0725 4.74805H14.8616C15.0773 4.74805 15.2522 4.92297 15.2522 5.13867C15.2522 5.35438 15.0773 5.5293 14.8616 5.5293Z" fill="#7D7D7D"/>
<path d="M12.7913 6.74756H10.9749C10.7592 6.74756 10.5842 6.57264 10.5842 6.35693C10.5842 6.14123 10.7592 5.96631 10.9749 5.96631H12.7913C13.007 5.96631 13.1819 6.14123 13.1819 6.35693C13.1819 6.57264 13.007 6.74756 12.7913 6.74756Z" fill="#7D7D7D"/>
<path d="M14.8616 8.78809H11.0725C10.8568 8.78809 10.6819 8.61316 10.6819 8.39746C10.6819 8.18176 10.8568 8.00684 11.0725 8.00684H14.8616C15.0773 8.00684 15.2522 8.18176 15.2522 8.39746C15.2522 8.61316 15.0773 8.78809 14.8616 8.78809Z" fill="#7D7D7D"/>
<path d="M12.7913 10.0063H10.9749C10.7592 10.0063 10.5842 9.83143 10.5842 9.61572C10.5842 9.40002 10.7592 9.2251 10.9749 9.2251H12.7913C13.007 9.2251 13.1819 9.40002 13.1819 9.61572C13.1819 9.83143 13.007 10.0063 12.7913 10.0063Z" fill="#7D7D7D"/>
<path d="M14.8616 12.502H11.0725C10.8568 12.502 10.6819 12.327 10.6819 12.1113C10.6819 11.8956 10.8568 11.7207 11.0725 11.7207H14.8616C15.0773 11.7207 15.2522 11.8956 15.2522 12.1113C15.2522 12.327 15.0773 12.502 14.8616 12.502Z" fill="#7D7D7D"/>
<path d="M12.7913 13.7202H10.9749C10.7592 13.7202 10.5842 13.5453 10.5842 13.3296C10.5842 13.1139 10.7592 12.939 10.9749 12.939H12.7913C13.007 12.939 13.1819 13.1139 13.1819 13.3296C13.1819 13.5453 13.007 13.7202 12.7913 13.7202Z" fill="#7D7D7D"/>
<path d="M9.50617 10.1363H7.93848C7.72277 10.1363 7.54785 9.96141 7.54785 9.7457V8.26758C7.54785 8.05188 7.72277 7.87695 7.93848 7.87695H9.50617C9.72188 7.87695 9.8968 8.05188 9.8968 8.26758V9.7457C9.8968 9.96145 9.72191 10.1363 9.50617 10.1363ZM8.32914 9.35508H9.11559V8.6582H8.32914V9.35508Z" fill="#7D7D7D"/>
<path d="M9.50617 14.1109H7.93848C7.72277 14.1109 7.54785 13.936 7.54785 13.7203V12.2422C7.54785 12.0265 7.72277 11.8516 7.93848 11.8516H9.50617C9.72188 11.8516 9.8968 12.0265 9.8968 12.2422V13.7203C9.8968 13.9361 9.72191 14.1109 9.50617 14.1109ZM8.32914 13.3297H9.11559V12.6328H8.32914V13.3297Z" fill="#7D7D7D"/>
</svg>
