<svg width="20" height="20" viewBox="0 0 20 20" fill="none" xmlns="http://www.w3.org/2000/svg">
<path d="M18.3333 16.6668H1.66667C0.7475 16.6668 0 15.9193 0 15.0002V5.00016C0 4.081 0.7475 3.3335 1.66667 3.3335H18.3333C19.2525 3.3335 20 4.081 20 5.00016V15.0002C20 15.9193 19.2525 16.6668 18.3333 16.6668ZM1.66667 4.16683C1.20708 4.16683 0.833333 4.54058 0.833333 5.00016V15.0002C0.833333 15.4597 1.20708 15.8335 1.66667 15.8335H18.3333C18.7929 15.8335 19.1667 15.4597 19.1667 15.0002V5.00016C19.1667 4.54058 18.7929 4.16683 18.3333 4.16683H1.66667Z" fill="black"/>
<path d="M10.0002 12.1632L2.69059 7.43365C2.49726 7.30823 2.44184 7.05073 2.56684 6.8574C2.69184 6.66406 2.94976 6.60906 3.14309 6.73365L10.0002 11.1707L16.8573 6.73365C17.0506 6.60906 17.3085 6.66406 17.4335 6.8574C17.5585 7.05073 17.5031 7.30823 17.3098 7.43365L10.0002 12.1632Z" fill="black"/>
<path d="M2.50033 14.1671C2.36575 14.1671 2.23325 14.1021 2.15325 13.9817C2.02533 13.79 2.077 13.5317 2.26866 13.4037L6.01866 10.9037C6.21033 10.7758 6.46908 10.8275 6.59658 11.0192C6.7245 11.2108 6.67283 11.4692 6.48116 11.5971L2.73116 14.0971C2.65991 14.1442 2.5795 14.1671 2.50033 14.1671Z" fill="black"/>
<path d="M17.4995 14.1671C17.4203 14.1671 17.3399 14.1442 17.2687 14.0971L13.5187 11.5971C13.327 11.4692 13.2753 11.2108 13.4032 11.0192C13.5307 10.8275 13.7891 10.7758 13.9812 10.9037L17.7312 13.4037C17.9228 13.5317 17.9745 13.79 17.8466 13.9817C17.7666 14.1021 17.6341 14.1671 17.4995 14.1671Z" fill="black"/>
</svg>
