<svg width="52" height="52" viewBox="0 0 52 52" fill="none" xmlns="http://www.w3.org/2000/svg">
<rect x="0.5" y="0.5" width="51" height="51" rx="14.5" stroke="#F0F0F0"/>
<path d="M31.0716 30.4974C31.0716 31.0848 30.5942 31.5801 30.0069 31.5801H21.4876C20.9002 31.5801 20.4229 31.0848 20.4229 30.4974V21.9781C20.4229 21.3908 20.9002 20.9308 21.4876 20.9308H26.4569V20.2214H21.4876C20.5089 20.2214 19.7129 21.0001 19.7129 21.9788V30.4974C19.7129 31.4761 20.5089 32.2894 21.4876 32.2894H30.0062C30.9849 32.2894 31.7809 31.4754 31.7809 30.4974V25.5454H31.0709L31.0716 30.4974Z" fill="#7D7D7D"/>
<path d="M31.8713 20.1134C31.3353 19.5768 30.3999 19.5768 29.8633 20.1134L25.1013 24.8754C25.0559 24.9208 25.0233 24.9781 25.0079 25.0401L24.5066 27.0474C24.4766 27.1681 24.5119 27.2961 24.5999 27.3848C24.6673 27.4521 24.7579 27.4888 24.8506 27.4888C24.8793 27.4888 24.9079 27.4854 24.9366 27.4781L26.9446 26.9761C27.0073 26.9608 27.0639 26.9281 27.1093 26.8828L31.8713 22.1208C32.1393 21.8528 32.2873 21.4961 32.2873 21.1168C32.2873 20.7374 32.1399 20.3814 31.8713 20.1134ZM26.6773 26.3114L25.3386 26.6461L25.6733 25.3074L29.6126 21.3681L30.6166 22.3721L26.6773 26.3114ZM31.3693 21.6188L31.1186 21.8694L30.1146 20.8654L30.3653 20.6148C30.6333 20.3468 31.1013 20.3468 31.3693 20.6148C31.5033 20.7488 31.5773 20.9268 31.5773 21.1168C31.5773 21.3068 31.5033 21.4848 31.3693 21.6188Z" fill="#7D7D7D"/>
</svg>
